<svg width="829" height="174" viewBox="0 0 829 174" fill="none" xmlns="http://www.w3.org/2000/svg">
<path fill-rule="evenodd" clip-rule="evenodd" d="M79.4558 3.96208C65.4067 5.74838 51.4736 12.5684 41.3462 22.6163C27.3807 36.4721 20.6617 54.9284 22.2018 75.2042C23.3944 90.9074 27.9782 101.898 39.8872 117.609C47.358 127.465 56.3527 137.656 76.3503 158.922C81.0828 163.955 85.6147 168.785 86.4209 169.655L87.8865 171.236L90.3421 168.705C99.0418 159.737 116.761 140.566 124.036 132.249C138.639 115.556 146.774 103.31 150.322 92.6831C150.883 91.0026 151.41 89.447 151.492 89.2257C151.609 88.9092 149.408 88.824 141.152 88.8259L130.663 88.8278L129.463 91.0139C123.231 102.369 112.096 110.98 99.695 114.033C95.0827 115.169 92.4317 115.505 88.0346 115.51C70.3982 115.531 54.2157 105.753 46.1067 90.1761C44.6687 87.414 42.3269 81.1204 42.3269 80.0186C42.3269 79.539 46.8279 79.4966 97.7312 79.4966H153.135L153.345 78.2661C154.146 73.5626 154.066 63.6689 153.185 58.4303C151.673 49.4358 147.854 39.8202 142.935 32.62C132.165 16.8537 115.897 6.7348 97.0478 4.07626C93.3507 3.55491 83.177 3.48865 79.4558 3.96208ZM97.1114 23.0588C115.265 27.0138 129.044 39.9196 133.574 57.2116C134.016 58.9002 134.306 60.396 134.219 60.5363C134.066 60.782 122.721 60.9676 122.721 60.7244C122.721 60.6588 122.497 59.3302 122.223 57.7719C121.356 52.8398 119.95 51.3768 115.14 50.4019C113.735 50.117 112.318 49.7426 111.993 49.5696C110.906 48.9926 109.824 47.1924 109.439 45.32C108.87 42.5521 107.062 39.2242 105.281 37.666C102.357 35.1078 99.4956 34.0879 95.2714 34.0998C92.29 34.1079 92.1963 34.0467 91.793 31.8298C91.4604 30.0001 90.3579 29.3234 87.7105 29.3234C84.8669 29.3234 84.0065 29.9403 83.5047 32.338L83.1458 34.0532L80.0059 34.1075C75.1184 34.1924 72.3264 35.229 69.5415 37.9918C67.6366 39.8816 66.456 42.1291 65.7675 45.1759C65.0631 48.2914 63.7544 49.6628 60.9627 50.2109C55.1591 51.3504 53.5262 52.9144 52.8795 57.9543C52.4782 61.0808 53.017 60.8183 47.0095 60.8157C43.5425 60.8141 41.6785 60.6967 41.6785 60.4793C41.6785 60.2957 41.9732 59.0002 42.3337 57.6002C47.0435 39.2976 61.9488 25.7723 80.7532 22.7369C84.5294 22.1274 93.6609 22.3069 97.1114 23.0588ZM86.0896 42.1883V46.691H78.3744C73.2944 46.691 70.5399 46.5727 70.3101 46.3446C69.4325 45.474 71.3581 41.5669 73.5135 39.8434C75.5318 38.2295 77.6217 37.7081 82.1186 37.6962L86.0896 37.6856V42.1883ZM99.7637 38.7437C101.935 39.8015 103.385 41.3354 104.5 43.752C105.802 46.5724 105.951 46.5157 96.9953 46.6164L89.3313 46.7026V42.1626V37.6225L93.6265 37.7345C97.5474 37.8368 98.0822 37.9246 99.7637 38.7437ZM69.8844 59.958C71.481 61.0361 72.2233 62.2219 72.3922 63.9635C72.7047 67.1922 70.6573 69.5475 67.3371 69.7778C65.8171 69.8833 65.3169 69.7768 64.4001 69.1529C61.2959 67.0395 60.7487 63.3019 63.1819 60.8325C64.463 59.5325 65.0994 59.28 67.1588 59.2546C68.3647 59.2398 69.1032 59.4305 69.8844 59.958ZM110.625 59.7669C113.303 61.0277 114.351 64.938 112.665 67.3785C110.25 70.8755 105.146 70.6002 103.227 66.8693C101.967 64.4183 102.898 61.3252 105.342 59.847C106.606 59.0822 109.091 59.0446 110.625 59.7669ZM70.3165 86.2716C69.5068 86.57 62.9803 91.2156 62.4065 91.9016C61.8418 92.5763 61.9345 93.8969 62.5971 94.6235C63.3748 95.4761 64.6251 95.4201 66.0346 94.4697L67.201 93.6834L68.1359 94.6585C69.8313 96.4271 72.9164 98.5421 75.8942 99.9775C83.3206 103.558 92.5636 103.483 99.9812 99.7823C102.603 98.4743 105.729 96.2811 107.286 94.6579L108.222 93.6821L109.262 94.4691C110.493 95.4012 112.035 95.4883 112.783 94.6679C113.557 93.8194 113.463 92.2779 112.59 91.5105C111.619 90.6559 106.119 86.7305 105.239 86.2632C103.863 85.5325 102.298 86.6337 102.298 88.3328C102.298 89.1765 102.546 89.602 103.462 90.3314L104.627 91.258L102.3 93.0977C99.5981 95.2333 96.2578 96.8838 93.1063 97.6409C90.2652 98.3234 85.2218 98.3376 82.3189 97.6712C79.3333 96.9858 75.3619 95.0194 72.8428 92.979L70.7795 91.3079L71.9513 90.243C72.7805 89.4894 73.1229 88.906 73.1229 88.2467C73.1229 86.8199 71.6466 85.7808 70.3165 86.2716Z" fill="#FEA735"/>
<path d="M214.585 20.7275H237.341L261.375 79.3638H262.398L286.432 20.7275H309.188V108H291.29V51.1962H290.565L267.98 107.574H255.793L233.207 50.9832H232.483V108H214.585V20.7275ZM332.856 132.545C330.555 132.545 328.396 132.361 326.379 131.991C324.39 131.651 322.743 131.21 321.436 130.67L325.527 117.119C327.658 117.773 329.575 118.128 331.28 118.185C333.013 118.241 334.504 117.844 335.754 116.991C337.033 116.139 338.069 114.69 338.865 112.645L339.93 109.875L316.45 42.5457H335.541L349.092 90.6138H349.774L363.453 42.5457H382.672L357.231 115.074C356.01 118.597 354.348 121.665 352.246 124.278C350.172 126.92 347.544 128.952 344.362 130.372C341.18 131.821 337.345 132.545 332.856 132.545ZM411.952 35.9405V20.7275H483.628V35.9405H456.909V108H438.671V35.9405H411.952ZM502.45 109.236C498.274 109.236 494.552 108.511 491.285 107.062C488.018 105.585 485.433 103.412 483.529 100.543C481.654 97.6451 480.717 94.0371 480.717 89.719C480.717 86.0826 481.384 83.0286 482.72 80.557C484.055 78.0854 485.873 76.0968 488.174 74.5911C490.475 73.0854 493.089 71.9491 496.015 71.182C498.97 70.415 502.066 69.8752 505.305 69.5627C509.112 69.165 512.18 68.7957 514.509 68.4547C516.839 68.0854 518.529 67.5457 519.58 66.8354C520.632 66.1252 521.157 65.0741 521.157 63.682V63.4263C521.157 60.7275 520.305 58.6394 518.6 57.1621C516.924 55.6849 514.538 54.9462 511.441 54.9462C508.174 54.9462 505.575 55.6707 503.643 57.1195C501.711 58.54 500.433 60.3297 499.808 62.4888L483.018 61.1252C483.87 57.1479 485.546 53.7104 488.046 50.8127C490.546 47.8866 493.771 45.6422 497.72 44.0797C501.697 42.4888 506.299 41.6934 511.526 41.6934C515.163 41.6934 518.643 42.1195 521.967 42.9718C525.319 43.8241 528.288 45.1451 530.873 46.9349C533.487 48.7246 535.546 51.0258 537.052 53.8383C538.558 56.6224 539.311 59.9604 539.311 63.8525V108H522.095V98.9235H521.583C520.532 100.969 519.126 102.773 517.364 104.335C515.603 105.869 513.487 107.077 511.015 107.957C508.543 108.81 505.688 109.236 502.45 109.236ZM507.649 96.7076C510.319 96.7076 512.677 96.182 514.722 95.1309C516.768 94.0513 518.373 92.6025 519.538 90.7843C520.703 88.9661 521.285 86.9064 521.285 84.6053V77.6593C520.717 78.0286 519.936 78.3695 518.941 78.682C517.975 78.9661 516.882 79.236 515.66 79.4917C514.438 79.7189 513.217 79.932 511.995 80.1309C510.774 80.3013 509.666 80.4576 508.671 80.5996C506.541 80.9121 504.68 81.4093 503.089 82.0911C501.498 82.7729 500.262 83.6962 499.382 84.861C498.501 85.9974 498.061 87.4178 498.061 89.1224C498.061 91.594 498.955 93.4832 500.745 94.79C502.563 96.0684 504.864 96.7076 507.649 96.7076ZM566.165 42.5457L578.182 65.4292L590.497 42.5457H609.119L590.156 75.2729L609.631 108H591.094L578.182 85.3724L565.483 108H546.733L566.165 75.2729L547.415 42.5457H566.165ZM617.501 108V42.5457H635.654V108H617.501ZM626.62 34.1082C623.921 34.1082 621.606 33.2133 619.674 31.4235C617.77 29.6053 616.819 27.432 616.819 24.9036C616.819 22.4036 617.77 20.2587 619.674 18.469C621.606 16.6508 623.921 15.7417 626.62 15.7417C629.319 15.7417 631.62 16.6508 633.523 18.469C635.455 20.2587 636.421 22.4036 636.421 24.9036C636.421 27.432 635.455 29.6053 633.523 31.4235C631.62 33.2133 629.319 34.1082 626.62 34.1082Z" fill="#FEA735"/>
<path d="M215 139.727H218.227L224.682 150.591H224.955L231.409 139.727H234.636L226.227 153.409V163H223.409V153.409L215 139.727ZM242.54 163.364C240.964 163.364 239.581 162.989 238.392 162.239C237.21 161.489 236.286 160.439 235.619 159.091C234.96 157.742 234.631 156.167 234.631 154.364C234.631 152.545 234.96 150.958 235.619 149.602C236.286 148.246 237.21 147.193 238.392 146.443C239.581 145.693 240.964 145.318 242.54 145.318C244.116 145.318 245.494 145.693 246.676 146.443C247.866 147.193 248.79 148.246 249.449 149.602C250.116 150.958 250.449 152.545 250.449 154.364C250.449 156.167 250.116 157.742 249.449 159.091C248.79 160.439 247.866 161.489 246.676 162.239C245.494 162.989 244.116 163.364 242.54 163.364ZM242.54 160.955C243.737 160.955 244.722 160.648 245.494 160.034C246.267 159.42 246.839 158.614 247.21 157.614C247.581 156.614 247.767 155.53 247.767 154.364C247.767 153.197 247.581 152.11 247.21 151.102C246.839 150.095 246.267 149.28 245.494 148.659C244.722 148.038 243.737 147.727 242.54 147.727C241.343 147.727 240.358 148.038 239.585 148.659C238.813 149.28 238.241 150.095 237.869 151.102C237.498 152.11 237.313 153.197 237.313 154.364C237.313 155.53 237.498 156.614 237.869 157.614C238.241 158.614 238.813 159.42 239.585 160.034C240.358 160.648 241.343 160.955 242.54 160.955ZM265.543 155.864V145.545H268.224V163H265.543V160.045H265.361C264.952 160.932 264.315 161.686 263.452 162.307C262.588 162.92 261.497 163.227 260.179 163.227C259.088 163.227 258.118 162.989 257.27 162.511C256.421 162.027 255.755 161.299 255.27 160.33C254.785 159.352 254.543 158.121 254.543 156.636V145.545H257.224V156.455C257.224 157.727 257.581 158.742 258.293 159.5C259.012 160.258 259.929 160.636 261.043 160.636C261.709 160.636 262.387 160.466 263.077 160.125C263.774 159.784 264.357 159.261 264.827 158.557C265.304 157.852 265.543 156.955 265.543 155.864ZM273.136 163V145.545H275.727V148.182H275.909C276.227 147.318 276.803 146.617 277.636 146.08C278.47 145.542 279.409 145.273 280.455 145.273C280.652 145.273 280.898 145.277 281.193 145.284C281.489 145.292 281.712 145.303 281.864 145.318V148.045C281.773 148.023 281.564 147.989 281.239 147.943C280.921 147.89 280.583 147.864 280.227 147.864C279.379 147.864 278.621 148.042 277.955 148.398C277.296 148.746 276.773 149.231 276.386 149.852C276.008 150.466 275.818 151.167 275.818 151.955V163H273.136ZM294.406 163V139.727H308.361V142.227H297.224V150.091H307.315V152.591H297.224V163H294.406ZM317.96 163.409C316.854 163.409 315.85 163.201 314.949 162.784C314.047 162.36 313.331 161.75 312.801 160.955C312.271 160.152 312.006 159.182 312.006 158.045C312.006 157.045 312.203 156.235 312.597 155.614C312.991 154.985 313.517 154.492 314.176 154.136C314.835 153.78 315.563 153.515 316.358 153.341C317.161 153.159 317.968 153.015 318.778 152.909C319.839 152.773 320.699 152.67 321.358 152.602C322.025 152.527 322.51 152.402 322.813 152.227C323.123 152.053 323.278 151.75 323.278 151.318V151.227C323.278 150.106 322.972 149.235 322.358 148.614C321.752 147.992 320.831 147.682 319.597 147.682C318.316 147.682 317.313 147.962 316.585 148.523C315.858 149.083 315.347 149.682 315.051 150.318L312.506 149.409C312.96 148.348 313.566 147.523 314.324 146.932C315.089 146.333 315.922 145.917 316.824 145.682C317.733 145.439 318.627 145.318 319.506 145.318C320.066 145.318 320.71 145.386 321.438 145.523C322.172 145.652 322.881 145.92 323.563 146.33C324.252 146.739 324.824 147.356 325.278 148.182C325.733 149.008 325.96 150.114 325.96 151.5V163H323.278V160.636H323.142C322.96 161.015 322.657 161.42 322.233 161.852C321.809 162.284 321.244 162.652 320.54 162.955C319.835 163.258 318.975 163.409 317.96 163.409ZM318.369 161C319.43 161 320.324 160.792 321.051 160.375C321.786 159.958 322.339 159.42 322.71 158.761C323.089 158.102 323.278 157.409 323.278 156.682V154.227C323.165 154.364 322.915 154.489 322.528 154.602C322.15 154.708 321.71 154.803 321.21 154.886C320.718 154.962 320.237 155.03 319.767 155.091C319.305 155.144 318.93 155.189 318.642 155.227C317.945 155.318 317.294 155.466 316.688 155.67C316.089 155.867 315.604 156.167 315.233 156.568C314.869 156.962 314.688 157.5 314.688 158.182C314.688 159.114 315.032 159.818 315.722 160.295C316.419 160.765 317.301 161 318.369 161ZM343.219 149.455L340.81 150.136C340.658 149.735 340.435 149.345 340.139 148.966C339.851 148.58 339.457 148.261 338.957 148.011C338.457 147.761 337.817 147.636 337.037 147.636C335.969 147.636 335.079 147.883 334.367 148.375C333.662 148.86 333.31 149.477 333.31 150.227C333.31 150.894 333.552 151.42 334.037 151.807C334.522 152.193 335.279 152.515 336.31 152.773L338.901 153.409C340.461 153.788 341.624 154.367 342.389 155.148C343.154 155.92 343.537 156.917 343.537 158.136C343.537 159.136 343.249 160.03 342.673 160.818C342.105 161.606 341.31 162.227 340.287 162.682C339.264 163.136 338.075 163.364 336.719 163.364C334.939 163.364 333.465 162.977 332.298 162.205C331.132 161.432 330.393 160.303 330.082 158.818L332.628 158.182C332.87 159.121 333.329 159.826 334.003 160.295C334.685 160.765 335.575 161 336.673 161C337.923 161 338.916 160.735 339.651 160.205C340.393 159.667 340.764 159.023 340.764 158.273C340.764 157.667 340.552 157.159 340.128 156.75C339.704 156.333 339.052 156.023 338.173 155.818L335.264 155.136C333.666 154.758 332.492 154.17 331.742 153.375C330.999 152.572 330.628 151.568 330.628 150.364C330.628 149.379 330.904 148.508 331.457 147.75C332.018 146.992 332.779 146.398 333.742 145.966C334.711 145.534 335.81 145.318 337.037 145.318C338.764 145.318 340.12 145.697 341.105 146.455C342.098 147.212 342.802 148.212 343.219 149.455ZM355.165 145.545V147.818H346.119V145.545H355.165ZM348.756 141.364H351.438V158C351.438 158.758 351.547 159.326 351.767 159.705C351.994 160.076 352.282 160.326 352.631 160.455C352.987 160.576 353.362 160.636 353.756 160.636C354.051 160.636 354.294 160.621 354.483 160.591C354.672 160.553 354.824 160.523 354.938 160.5L355.483 162.909C355.301 162.977 355.047 163.045 354.722 163.114C354.396 163.189 353.983 163.227 353.483 163.227C352.725 163.227 351.983 163.064 351.256 162.739C350.536 162.413 349.938 161.917 349.46 161.25C348.991 160.583 348.756 159.742 348.756 158.727V141.364ZM367.29 142.227V139.727H384.744V142.227H377.426V163H374.608V142.227H367.29ZM386.918 163V145.545H389.509V148.182H389.69C390.009 147.318 390.584 146.617 391.418 146.08C392.251 145.542 393.19 145.273 394.236 145.273C394.433 145.273 394.679 145.277 394.974 145.284C395.27 145.292 395.493 145.303 395.645 145.318V148.045C395.554 148.023 395.346 147.989 395.02 147.943C394.702 147.89 394.365 147.864 394.009 147.864C393.16 147.864 392.403 148.042 391.736 148.398C391.077 148.746 390.554 149.231 390.168 149.852C389.789 150.466 389.599 151.167 389.599 151.955V163H386.918ZM403.96 163.409C402.854 163.409 401.85 163.201 400.949 162.784C400.047 162.36 399.331 161.75 398.801 160.955C398.271 160.152 398.006 159.182 398.006 158.045C398.006 157.045 398.203 156.235 398.597 155.614C398.991 154.985 399.517 154.492 400.176 154.136C400.835 153.78 401.563 153.515 402.358 153.341C403.161 153.159 403.968 153.015 404.778 152.909C405.839 152.773 406.699 152.67 407.358 152.602C408.025 152.527 408.51 152.402 408.813 152.227C409.123 152.053 409.278 151.75 409.278 151.318V151.227C409.278 150.106 408.972 149.235 408.358 148.614C407.752 147.992 406.831 147.682 405.597 147.682C404.316 147.682 403.313 147.962 402.585 148.523C401.858 149.083 401.347 149.682 401.051 150.318L398.506 149.409C398.96 148.348 399.566 147.523 400.324 146.932C401.089 146.333 401.922 145.917 402.824 145.682C403.733 145.439 404.627 145.318 405.506 145.318C406.066 145.318 406.71 145.386 407.438 145.523C408.172 145.652 408.881 145.92 409.563 146.33C410.252 146.739 410.824 147.356 411.278 148.182C411.733 149.008 411.96 150.114 411.96 151.5V163H409.278V160.636H409.142C408.96 161.015 408.657 161.42 408.233 161.852C407.809 162.284 407.244 162.652 406.54 162.955C405.835 163.258 404.975 163.409 403.96 163.409ZM404.369 161C405.43 161 406.324 160.792 407.051 160.375C407.786 159.958 408.339 159.42 408.71 158.761C409.089 158.102 409.278 157.409 409.278 156.682V154.227C409.165 154.364 408.915 154.489 408.528 154.602C408.15 154.708 407.71 154.803 407.21 154.886C406.718 154.962 406.237 155.03 405.767 155.091C405.305 155.144 404.93 155.189 404.642 155.227C403.945 155.318 403.294 155.466 402.688 155.67C402.089 155.867 401.604 156.167 401.233 156.568C400.869 156.962 400.688 157.5 400.688 158.182C400.688 159.114 401.032 159.818 401.722 160.295C402.419 160.765 403.301 161 404.369 161ZM423.946 163.364C422.31 163.364 420.901 162.977 419.719 162.205C418.537 161.432 417.628 160.367 416.992 159.011C416.355 157.655 416.037 156.106 416.037 154.364C416.037 152.591 416.363 151.027 417.014 149.67C417.673 148.307 418.59 147.242 419.764 146.477C420.946 145.705 422.325 145.318 423.901 145.318C425.128 145.318 426.234 145.545 427.219 146C428.204 146.455 429.01 147.091 429.639 147.909C430.268 148.727 430.658 149.682 430.81 150.773H428.128C427.923 149.977 427.469 149.273 426.764 148.659C426.067 148.038 425.128 147.727 423.946 147.727C422.901 147.727 421.984 148 421.196 148.545C420.416 149.083 419.806 149.845 419.367 150.83C418.935 151.807 418.719 152.955 418.719 154.273C418.719 155.621 418.931 156.795 419.355 157.795C419.787 158.795 420.393 159.572 421.173 160.125C421.961 160.678 422.885 160.955 423.946 160.955C424.643 160.955 425.276 160.833 425.844 160.591C426.412 160.348 426.893 160 427.287 159.545C427.681 159.091 427.961 158.545 428.128 157.909H430.81C430.658 158.939 430.283 159.867 429.685 160.693C429.094 161.511 428.31 162.163 427.332 162.648C426.363 163.125 425.234 163.364 423.946 163.364ZM437.23 156.636L437.185 153.318H437.73L445.367 145.545H448.685L440.548 153.773H440.321L437.23 156.636ZM434.73 163V139.727H437.412V163H434.73ZM445.821 163L439.003 154.364L440.912 152.5L449.23 163H445.821ZM468.727 145.545V147.818H459.682V145.545H468.727ZM462.318 141.364H465V158C465 158.758 465.11 159.326 465.33 159.705C465.557 160.076 465.845 160.326 466.193 160.455C466.549 160.576 466.924 160.636 467.318 160.636C467.614 160.636 467.856 160.621 468.046 160.591C468.235 160.553 468.386 160.523 468.5 160.5L469.046 162.909C468.864 162.977 468.61 163.045 468.284 163.114C467.958 163.189 467.546 163.227 467.046 163.227C466.288 163.227 465.546 163.064 464.818 162.739C464.099 162.413 463.5 161.917 463.023 161.25C462.553 160.583 462.318 159.742 462.318 158.727V141.364ZM479.665 163.364C478.089 163.364 476.706 162.989 475.517 162.239C474.335 161.489 473.411 160.439 472.744 159.091C472.085 157.742 471.756 156.167 471.756 154.364C471.756 152.545 472.085 150.958 472.744 149.602C473.411 148.246 474.335 147.193 475.517 146.443C476.706 145.693 478.089 145.318 479.665 145.318C481.241 145.318 482.619 145.693 483.801 146.443C484.991 147.193 485.915 148.246 486.574 149.602C487.241 150.958 487.574 152.545 487.574 154.364C487.574 156.167 487.241 157.742 486.574 159.091C485.915 160.439 484.991 161.489 483.801 162.239C482.619 162.989 481.241 163.364 479.665 163.364ZM479.665 160.955C480.862 160.955 481.847 160.648 482.619 160.034C483.392 159.42 483.964 158.614 484.335 157.614C484.706 156.614 484.892 155.53 484.892 154.364C484.892 153.197 484.706 152.11 484.335 151.102C483.964 150.095 483.392 149.28 482.619 148.659C481.847 148.038 480.862 147.727 479.665 147.727C478.468 147.727 477.483 148.038 476.71 148.659C475.938 149.28 475.366 150.095 474.994 151.102C474.623 152.11 474.438 153.197 474.438 154.364C474.438 155.53 474.623 156.614 474.994 157.614C475.366 158.614 475.938 159.42 476.71 160.034C477.483 160.648 478.468 160.955 479.665 160.955ZM519.759 147H516.94C516.774 146.189 516.482 145.477 516.065 144.864C515.656 144.25 515.156 143.735 514.565 143.318C513.982 142.894 513.334 142.576 512.622 142.364C511.91 142.152 511.168 142.045 510.395 142.045C508.986 142.045 507.709 142.402 506.565 143.114C505.429 143.826 504.524 144.875 503.849 146.261C503.183 147.648 502.849 149.348 502.849 151.364C502.849 153.379 503.183 155.08 503.849 156.466C504.524 157.852 505.429 158.902 506.565 159.614C507.709 160.326 508.986 160.682 510.395 160.682C511.168 160.682 511.91 160.576 512.622 160.364C513.334 160.152 513.982 159.837 514.565 159.42C515.156 158.996 515.656 158.477 516.065 157.864C516.482 157.242 516.774 156.53 516.94 155.727H519.759C519.546 156.917 519.16 157.981 518.599 158.92C518.039 159.86 517.342 160.659 516.509 161.318C515.675 161.97 514.74 162.466 513.702 162.807C512.671 163.148 511.569 163.318 510.395 163.318C508.41 163.318 506.645 162.833 505.099 161.864C503.554 160.894 502.338 159.515 501.452 157.727C500.565 155.939 500.122 153.818 500.122 151.364C500.122 148.909 500.565 146.788 501.452 145C502.338 143.212 503.554 141.833 505.099 140.864C506.645 139.894 508.41 139.409 510.395 139.409C511.569 139.409 512.671 139.58 513.702 139.92C514.74 140.261 515.675 140.761 516.509 141.42C517.342 142.072 518.039 142.867 518.599 143.807C519.16 144.739 519.546 145.803 519.759 147ZM523.949 163V145.545H526.631V163H523.949ZM525.313 142.636C524.79 142.636 524.339 142.458 523.96 142.102C523.589 141.746 523.403 141.318 523.403 140.818C523.403 140.318 523.589 139.89 523.96 139.534C524.339 139.178 524.79 139 525.313 139C525.835 139 526.282 139.178 526.653 139.534C527.032 139.89 527.222 140.318 527.222 140.818C527.222 141.318 527.032 141.746 526.653 142.102C526.282 142.458 525.835 142.636 525.313 142.636ZM539.134 145.545V147.818H530.088V145.545H539.134ZM532.724 141.364H535.406V158C535.406 158.758 535.516 159.326 535.736 159.705C535.963 160.076 536.251 160.326 536.599 160.455C536.956 160.576 537.331 160.636 537.724 160.636C538.02 160.636 538.262 160.621 538.452 160.591C538.641 160.553 538.793 160.523 538.906 160.5L539.452 162.909C539.27 162.977 539.016 163.045 538.69 163.114C538.365 163.189 537.952 163.227 537.452 163.227C536.694 163.227 535.952 163.064 535.224 162.739C534.505 162.413 533.906 161.917 533.429 161.25C532.959 160.583 532.724 159.742 532.724 158.727V141.364ZM544.895 169.545C544.44 169.545 544.035 169.508 543.679 169.432C543.323 169.364 543.077 169.295 542.94 169.227L543.622 166.864C544.274 167.03 544.849 167.091 545.349 167.045C545.849 167 546.293 166.777 546.679 166.375C547.073 165.981 547.433 165.341 547.759 164.455L548.259 163.091L541.804 145.545H544.713L549.531 159.455H549.713L554.531 145.545H557.44L550.031 165.545C549.698 166.447 549.285 167.193 548.793 167.784C548.3 168.383 547.728 168.826 547.077 169.114C546.433 169.402 545.706 169.545 544.895 169.545ZM570.344 163V139.727H584.389V142.227H573.162V150.091H583.662V152.591H573.162V160.5H584.571V163H570.344ZM591.105 145.545L595.287 152.682L599.469 145.545H602.56L596.923 154.273L602.56 163H599.469L595.287 156.227L591.105 163H588.014L593.56 154.273L588.014 145.545H591.105ZM606.386 169.545V145.545H608.977V148.318H609.296C609.492 148.015 609.765 147.629 610.114 147.159C610.47 146.682 610.977 146.258 611.636 145.886C612.303 145.508 613.205 145.318 614.341 145.318C615.811 145.318 617.106 145.686 618.227 146.42C619.349 147.155 620.224 148.197 620.852 149.545C621.481 150.894 621.796 152.485 621.796 154.318C621.796 156.167 621.481 157.769 620.852 159.125C620.224 160.473 619.352 161.519 618.239 162.261C617.125 162.996 615.841 163.364 614.386 163.364C613.265 163.364 612.367 163.178 611.693 162.807C611.019 162.428 610.5 162 610.136 161.523C609.773 161.038 609.492 160.636 609.296 160.318H609.068V169.545H606.386ZM609.023 154.273C609.023 155.591 609.216 156.754 609.602 157.761C609.989 158.761 610.553 159.545 611.296 160.114C612.038 160.674 612.947 160.955 614.023 160.955C615.144 160.955 616.08 160.659 616.83 160.068C617.587 159.47 618.155 158.667 618.534 157.659C618.921 156.644 619.114 155.515 619.114 154.273C619.114 153.045 618.924 151.939 618.546 150.955C618.174 149.962 617.61 149.178 616.852 148.602C616.102 148.019 615.159 147.727 614.023 147.727C612.932 147.727 612.015 148.004 611.273 148.557C610.53 149.102 609.97 149.867 609.591 150.852C609.212 151.83 609.023 152.97 609.023 154.273ZM628.568 139.727V163H625.886V139.727H628.568ZM640.571 163.364C638.995 163.364 637.613 162.989 636.423 162.239C635.242 161.489 634.317 160.439 633.651 159.091C632.992 157.742 632.662 156.167 632.662 154.364C632.662 152.545 632.992 150.958 633.651 149.602C634.317 148.246 635.242 147.193 636.423 146.443C637.613 145.693 638.995 145.318 640.571 145.318C642.147 145.318 643.526 145.693 644.707 146.443C645.897 147.193 646.821 148.246 647.48 149.602C648.147 150.958 648.48 152.545 648.48 154.364C648.48 156.167 648.147 157.742 647.48 159.091C646.821 160.439 645.897 161.489 644.707 162.239C643.526 162.989 642.147 163.364 640.571 163.364ZM640.571 160.955C641.768 160.955 642.753 160.648 643.526 160.034C644.298 159.42 644.87 158.614 645.242 157.614C645.613 156.614 645.798 155.53 645.798 154.364C645.798 153.197 645.613 152.11 645.242 151.102C644.87 150.095 644.298 149.28 643.526 148.659C642.753 148.038 641.768 147.727 640.571 147.727C639.374 147.727 638.389 148.038 637.617 148.659C636.844 149.28 636.272 150.095 635.901 151.102C635.529 152.11 635.344 153.197 635.344 154.364C635.344 155.53 635.529 156.614 635.901 157.614C636.272 158.614 636.844 159.42 637.617 160.034C638.389 160.648 639.374 160.955 640.571 160.955ZM652.574 163V145.545H655.165V148.182H655.347C655.665 147.318 656.241 146.617 657.074 146.08C657.907 145.542 658.847 145.273 659.892 145.273C660.089 145.273 660.335 145.277 660.631 145.284C660.926 145.292 661.15 145.303 661.301 145.318V148.045C661.21 148.023 661.002 147.989 660.676 147.943C660.358 147.89 660.021 147.864 659.665 147.864C658.816 147.864 658.059 148.042 657.392 148.398C656.733 148.746 656.21 149.231 655.824 149.852C655.445 150.466 655.256 151.167 655.256 151.955V163H652.574ZM669.617 163.409C668.51 163.409 667.507 163.201 666.605 162.784C665.704 162.36 664.988 161.75 664.457 160.955C663.927 160.152 663.662 159.182 663.662 158.045C663.662 157.045 663.859 156.235 664.253 155.614C664.647 154.985 665.173 154.492 665.832 154.136C666.492 153.78 667.219 153.515 668.014 153.341C668.817 153.159 669.624 153.015 670.435 152.909C671.495 152.773 672.355 152.67 673.014 152.602C673.681 152.527 674.166 152.402 674.469 152.227C674.779 152.053 674.935 151.75 674.935 151.318V151.227C674.935 150.106 674.628 149.235 674.014 148.614C673.408 147.992 672.488 147.682 671.253 147.682C669.973 147.682 668.969 147.962 668.242 148.523C667.514 149.083 667.003 149.682 666.707 150.318L664.162 149.409C664.617 148.348 665.223 147.523 665.98 146.932C666.745 146.333 667.579 145.917 668.48 145.682C669.389 145.439 670.283 145.318 671.162 145.318C671.723 145.318 672.367 145.386 673.094 145.523C673.829 145.652 674.537 145.92 675.219 146.33C675.908 146.739 676.48 147.356 676.935 148.182C677.389 149.008 677.617 150.114 677.617 151.5V163H674.935V160.636H674.798C674.617 161.015 674.314 161.42 673.889 161.852C673.465 162.284 672.901 162.652 672.196 162.955C671.492 163.258 670.632 163.409 669.617 163.409ZM670.026 161C671.086 161 671.98 160.792 672.707 160.375C673.442 159.958 673.995 159.42 674.367 158.761C674.745 158.102 674.935 157.409 674.935 156.682V154.227C674.821 154.364 674.571 154.489 674.185 154.602C673.806 154.708 673.367 154.803 672.867 154.886C672.374 154.962 671.893 155.03 671.423 155.091C670.961 155.144 670.586 155.189 670.298 155.227C669.601 155.318 668.95 155.466 668.344 155.67C667.745 155.867 667.26 156.167 666.889 156.568C666.526 156.962 666.344 157.5 666.344 158.182C666.344 159.114 666.689 159.818 667.378 160.295C668.075 160.765 668.957 161 670.026 161ZM690.102 145.545V147.818H681.057V145.545H690.102ZM683.693 141.364H686.375V158C686.375 158.758 686.485 159.326 686.705 159.705C686.932 160.076 687.22 160.326 687.568 160.455C687.924 160.576 688.299 160.636 688.693 160.636C688.989 160.636 689.231 160.621 689.421 160.591C689.61 160.553 689.761 160.523 689.875 160.5L690.421 162.909C690.239 162.977 689.985 163.045 689.659 163.114C689.333 163.189 688.921 163.227 688.421 163.227C687.663 163.227 686.921 163.064 686.193 162.739C685.474 162.413 684.875 161.917 684.398 161.25C683.928 160.583 683.693 159.742 683.693 158.727V141.364ZM694.136 163V145.545H696.818V163H694.136ZM695.5 142.636C694.977 142.636 694.527 142.458 694.148 142.102C693.777 141.746 693.591 141.318 693.591 140.818C693.591 140.318 693.777 139.89 694.148 139.534C694.527 139.178 694.977 139 695.5 139C696.023 139 696.47 139.178 696.841 139.534C697.22 139.89 697.409 140.318 697.409 140.818C697.409 141.318 697.22 141.746 696.841 142.102C696.47 142.458 696.023 142.636 695.5 142.636ZM708.821 163.364C707.245 163.364 705.863 162.989 704.673 162.239C703.492 161.489 702.567 160.439 701.901 159.091C701.242 157.742 700.912 156.167 700.912 154.364C700.912 152.545 701.242 150.958 701.901 149.602C702.567 148.246 703.492 147.193 704.673 146.443C705.863 145.693 707.245 145.318 708.821 145.318C710.397 145.318 711.776 145.693 712.957 146.443C714.147 147.193 715.071 148.246 715.73 149.602C716.397 150.958 716.73 152.545 716.73 154.364C716.73 156.167 716.397 157.742 715.73 159.091C715.071 160.439 714.147 161.489 712.957 162.239C711.776 162.989 710.397 163.364 708.821 163.364ZM708.821 160.955C710.018 160.955 711.003 160.648 711.776 160.034C712.548 159.42 713.12 158.614 713.492 157.614C713.863 156.614 714.048 155.53 714.048 154.364C714.048 153.197 713.863 152.11 713.492 151.102C713.12 150.095 712.548 149.28 711.776 148.659C711.003 148.038 710.018 147.727 708.821 147.727C707.624 147.727 706.639 148.038 705.867 148.659C705.094 149.28 704.522 150.095 704.151 151.102C703.779 152.11 703.594 153.197 703.594 154.364C703.594 155.53 703.779 156.614 704.151 157.614C704.522 158.614 705.094 159.42 705.867 160.034C706.639 160.648 707.624 160.955 708.821 160.955ZM723.506 152.5V163H720.824V145.545H723.415V148.273H723.642C724.051 147.386 724.672 146.674 725.506 146.136C726.339 145.591 727.415 145.318 728.733 145.318C729.915 145.318 730.949 145.561 731.835 146.045C732.722 146.523 733.411 147.25 733.903 148.227C734.396 149.197 734.642 150.424 734.642 151.909V163H731.96V152.091C731.96 150.72 731.604 149.652 730.892 148.886C730.18 148.114 729.203 147.727 727.96 147.727C727.104 147.727 726.339 147.913 725.665 148.284C724.998 148.655 724.472 149.197 724.085 149.909C723.699 150.621 723.506 151.485 723.506 152.5Z" fill="#FEA735"/>
</svg>
