<svg width="128" height="38" viewBox="0 0 128 38" fill="none" xmlns="http://www.w3.org/2000/svg">
<g clip-path="url(#clip0_6212_15211)">
<path d="M127.184 33.4594C127.184 33.9358 127.09 34.4076 126.907 34.8478C126.724 35.2879 126.456 35.6878 126.118 36.0245C125.78 36.3612 125.379 36.6282 124.938 36.8102C124.496 36.9922 124.023 37.0856 123.546 37.0851H4.48663C3.52165 37.0861 2.59578 36.7047 1.91263 36.0248C1.22949 35.3449 0.845008 34.4221 0.84375 33.4594V4.54527C0.845007 3.58214 1.22933 2.65887 1.91234 1.97818C2.59535 1.2975 3.52121 0.915045 4.48663 0.914795H123.545C124.023 0.914795 124.496 1.00871 124.937 1.19117C125.379 1.37363 125.78 1.64106 126.118 1.97819C126.456 2.31533 126.724 2.71556 126.906 3.15602C127.089 3.59648 127.183 4.06855 127.183 4.54527L127.184 33.4594Z" fill="white"/>
<path d="M123.547 37.9286H4.48741C3.29867 37.9284 2.15857 37.4577 1.31729 36.6198C0.476009 35.7819 0.00226186 34.6453 0 33.4594L0 4.54622C0.00175858 3.3597 0.475193 2.22232 1.31645 1.38359C2.1577 0.54486 3.29808 0.0732671 4.48741 0.0722656L123.546 0.0722656C124.735 0.0737668 125.875 0.54552 126.716 1.38414C127.557 2.22277 128.031 3.35986 128.033 4.54622V33.4594C128.035 35.9245 126.019 37.9286 123.547 37.9286Z" fill="#383A41"/>
<path d="M127.184 33.4594C127.184 33.9358 127.09 34.4076 126.907 34.8478C126.724 35.2879 126.456 35.6878 126.118 36.0245C125.78 36.3612 125.379 36.6282 124.938 36.8102C124.496 36.9922 124.023 37.0856 123.546 37.0851H4.48663C3.52165 37.0861 2.59578 36.7047 1.91263 36.0248C1.22949 35.3449 0.845008 34.4221 0.84375 33.4594V4.54527C0.845007 3.58214 1.22933 2.65887 1.91234 1.97818C2.59535 1.2975 3.52121 0.915045 4.48663 0.914795H123.545C124.023 0.914795 124.496 1.00871 124.937 1.19117C125.379 1.37363 125.78 1.64106 126.118 1.97819C126.456 2.31533 126.724 2.71556 126.906 3.15602C127.089 3.59648 127.183 4.06855 127.183 4.54527L127.184 33.4594Z" fill="#131416"/>
<path d="M28.5911 18.8012C28.5636 15.7501 31.0953 14.2657 31.211 14.1966C29.7772 12.1111 27.5549 11.8262 26.7739 11.8034C24.9074 11.6075 23.0969 12.9177 22.1461 12.9177C21.1763 12.9177 19.7121 11.8224 18.1341 11.8546C16.1034 11.8858 14.2037 13.0587 13.1617 14.8801C11.0115 18.5939 12.6152 24.0514 14.6753 27.0533C15.7058 28.5245 16.91 30.165 18.4861 30.1073C20.0281 30.0448 20.6041 29.1275 22.4649 29.1275C24.3086 29.1275 24.8495 30.1073 26.457 30.0704C28.1119 30.0448 29.1538 28.5936 30.1482 27.1101C31.3391 25.426 31.8174 23.7656 31.8364 23.6804C31.7984 23.6671 28.6233 22.4573 28.5911 18.8012ZM25.5546 9.82869C26.3839 8.79398 26.9514 7.38629 26.7938 5.95776C25.5935 6.01078 24.0923 6.7861 23.2278 7.79809C22.463 8.68985 21.7798 10.1515 21.9563 11.5261C23.3047 11.6264 24.6891 10.8473 25.5546 9.82869Z" fill="white"/>
<path d="M123.545 0.0722656H59.7734L84.7517 37.9286H123.545C124.734 37.9276 125.874 37.4563 126.715 36.618C127.557 35.7796 128.03 34.6427 128.033 33.4565V4.54622C128.031 3.35978 127.557 2.22254 126.716 1.38387C125.875 0.545191 124.734 0.073517 123.545 0.0722656Z" fill="url(#paint0_linear_6212_15211)"/>
<path d="M50.9267 29.8961H48.7717L47.5912 26.1956H43.4881L42.3637 29.8961H40.2656L44.3317 17.2978H46.8425L50.9267 29.8961ZM47.2354 24.643L46.1679 21.3534C46.0549 21.0173 45.8424 20.2259 45.5311 18.9801H45.4932C45.3679 19.5159 45.1677 20.3073 44.8935 21.3534L43.844 24.643H47.2354ZM61.3628 25.2423C61.3628 26.7872 60.9424 28.0084 60.1008 28.9049C59.3473 29.703 58.4107 30.1015 57.2939 30.1015C56.0878 30.1015 55.2205 29.6727 54.6938 28.8131V33.5796H52.6708V23.7976C52.6708 22.8273 52.6451 21.8324 52.5958 20.8119H54.375L54.4879 22.2517H54.5259C55.2006 21.1669 56.2244 20.6244 57.5985 20.6244C58.6726 20.6244 59.5694 21.0476 60.2867 21.8948C61.0032 22.744 61.3628 23.8592 61.3628 25.2423ZM59.3018 25.3161C59.3018 24.4319 59.1025 23.703 58.7021 23.1284C58.2646 22.531 57.6772 22.2319 56.9409 22.2319C56.4417 22.2319 55.9882 22.3985 55.583 22.727C55.1768 23.0583 54.9112 23.4909 54.7868 24.0267C54.7314 24.2271 54.6998 24.4334 54.6929 24.6411V26.1567C54.6929 26.8166 54.896 27.3742 55.3021 27.8305C55.7082 28.2849 56.2358 28.513 56.8849 28.513C57.6469 28.513 58.2399 28.2186 58.6641 27.6345C59.0892 27.0485 59.3018 26.276 59.3018 25.3161ZM71.836 25.2423C71.836 26.7872 71.4156 28.0084 70.5739 28.9049C69.8195 29.703 68.8839 30.1015 67.7661 30.1015C66.56 30.1015 65.6927 29.6727 65.1661 28.8131V33.5796H63.143V23.7976C63.143 22.8273 63.1173 21.8324 63.068 20.8119H64.8472L64.9601 22.2517H64.9981C65.6718 21.1669 66.6957 20.6244 68.0707 20.6244C69.1439 20.6244 70.0406 21.0476 70.7599 21.8948C71.4754 22.744 71.836 23.8592 71.836 25.2423ZM69.774 25.3161C69.774 24.4319 69.5738 23.703 69.1733 23.1284C68.7359 22.531 68.1504 22.2319 67.414 22.2319C66.9149 22.2319 66.4613 22.3985 66.0542 22.727C65.6481 23.0583 65.3834 23.4909 65.259 24.0267C65.1974 24.2767 65.1642 24.4802 65.1642 24.6411V26.1567C65.1642 26.8166 65.3682 27.3742 65.7724 27.8305C66.1785 28.2839 66.7061 28.513 67.3571 28.513C68.12 28.513 68.7131 28.2186 69.1363 27.6345C69.5614 27.0485 69.774 26.276 69.774 25.3161ZM83.5456 26.3622C83.5456 27.4348 83.1698 28.3066 82.423 28.9797C81.6012 29.7143 80.454 30.0826 78.9832 30.0826C77.6243 30.0826 76.535 29.8213 75.7132 29.2978L76.181 27.6156C77.0683 28.14 78.0428 28.4013 79.1037 28.4013C79.8666 28.4013 80.4597 28.229 80.8829 27.8873C81.3071 27.5446 81.5215 27.0864 81.5215 26.5146C81.5215 26.0024 81.3441 25.5736 80.9958 25.2243C80.6457 24.8759 80.0668 24.5512 79.2536 24.253C77.0427 23.4303 75.9362 22.2271 75.9362 20.6443C75.9362 19.6105 76.3272 18.7642 77.1072 18.1025C77.8872 17.4417 78.9215 17.1113 80.2082 17.1113C81.3574 17.1113 82.3148 17.3111 83.0749 17.7096L82.5672 19.3549C81.8517 18.9687 81.0442 18.7756 80.1409 18.7756C79.4273 18.7756 78.8674 18.9507 78.467 19.2991C78.1301 19.6105 77.9593 19.9901 77.9593 20.4408C77.9593 20.9378 78.1538 21.3505 78.541 21.6743C78.8769 21.9725 79.4899 22.2972 80.3762 22.6456C81.4636 23.0829 82.2626 23.5922 82.7741 24.1773C83.2893 24.7623 83.5456 25.4922 83.5456 26.3622ZM90.2515 22.3265H88.0216V26.7371C88.0216 27.8589 88.4144 28.4183 89.202 28.4183C89.5636 28.4183 89.8634 28.388 90.1006 28.3246L90.1566 29.8573C89.7581 30.0059 89.2333 30.0807 88.5833 30.0807C87.7843 30.0807 87.16 29.8374 86.7092 29.3508C86.2604 28.8642 86.0346 28.0491 86.0346 26.9018V22.3227H84.7061V20.8081H86.0346V19.1448L88.0216 18.5465V20.8081H90.2515V22.3265ZM100.293 25.2792C100.293 26.6755 99.8925 27.8219 99.0935 28.7184C98.2575 29.6414 97.1454 30.1015 95.759 30.1015C94.4211 30.1015 93.3573 29.6594 92.564 28.7762C91.7707 27.891 91.3741 26.7759 91.3741 25.4307C91.3741 24.023 91.784 22.8699 92.601 21.9734C93.4199 21.076 94.5226 20.6273 95.9089 20.6273C97.245 20.6273 98.3182 21.0703 99.1305 21.9545C99.9067 22.8122 100.293 23.9198 100.293 25.2792ZM98.1958 25.3256C98.1958 24.4935 98.0155 23.7797 97.654 23.1823C97.2298 22.461 96.6225 22.1003 95.8359 22.1003C95.0255 22.1003 94.404 22.461 93.9808 23.1823C93.6183 23.7797 93.438 24.5058 93.438 25.3634C93.438 26.1965 93.6183 26.9122 93.9808 27.5076C94.4182 28.229 95.0284 28.5897 95.8188 28.5897C96.5922 28.5897 97.1985 28.2214 97.6369 27.4897C98.0089 26.8781 98.1958 26.1596 98.1958 25.3256ZM106.872 22.5869C106.661 22.549 106.448 22.5303 106.234 22.531C105.522 22.531 104.972 22.798 104.585 23.3357C104.249 23.809 104.08 24.4073 104.08 25.1296V29.8961H102.057V23.6727C102.059 22.7191 102.039 21.7655 101.998 20.8128H103.76L103.834 22.5509H103.89C104.105 21.9535 104.441 21.4717 104.902 21.111C105.324 20.7958 105.837 20.6252 106.364 20.6244C106.551 20.6244 106.72 20.6377 106.87 20.6613L106.872 22.5869ZM115.92 24.9242C115.925 25.231 115.9 25.5376 115.846 25.8396H109.776C109.799 26.7371 110.093 27.4243 110.657 27.8977C111.168 28.3199 111.83 28.5319 112.642 28.5319C113.541 28.5319 114.361 28.3899 115.098 28.1031L115.415 29.5032C114.553 29.8781 113.536 30.0646 112.362 30.0646C110.95 30.0646 109.842 29.65 109.035 28.8226C108.231 27.9942 107.827 26.8809 107.827 25.4865C107.827 24.1176 108.202 22.9769 108.953 22.0671C109.738 21.0959 110.8 20.6102 112.136 20.6102C113.449 20.6102 114.442 21.0959 115.117 22.0671C115.651 22.8368 115.92 23.791 115.92 24.9242ZM113.99 24.4007C114.005 23.8014 113.872 23.2855 113.598 22.8491C113.247 22.2868 112.709 22.0066 111.986 22.0066C111.325 22.0066 110.786 22.2801 110.376 22.8292C110.039 23.2656 109.839 23.7901 109.777 24.3988L113.99 24.4007Z" fill="white"/>
<path d="M42.9 12.8437C42.3373 12.8437 41.8505 12.8163 41.4453 12.7699V6.67904C42.012 6.5917 42.5847 6.54866 43.1581 6.55029C45.4782 6.55029 46.5467 7.68913 46.5467 9.54555C46.5467 11.6869 45.2846 12.8437 42.9 12.8437ZM43.2397 7.33129C42.9266 7.33129 42.6599 7.35023 42.4388 7.39567V12.0258C42.5584 12.0448 42.788 12.0533 43.1107 12.0533C44.6308 12.0533 45.4962 11.1899 45.4962 9.573C45.4962 8.13123 44.7134 7.33129 43.2397 7.33129ZM49.8764 12.8901C48.5688 12.8901 47.7214 11.916 47.7214 10.5935C47.7214 9.21516 48.5868 8.23252 49.9504 8.23252C51.239 8.23252 52.1054 9.16026 52.1054 10.5206C52.1054 11.916 51.2125 12.8901 49.8764 12.8901ZM49.9144 8.95767C49.196 8.95767 48.7358 9.62791 48.7358 10.5651C48.7358 11.4843 49.2055 12.1546 49.9049 12.1546C50.6042 12.1546 51.0739 11.4379 51.0739 10.5462C51.0739 9.63738 50.6137 8.95767 49.9144 8.95767ZM59.562 8.32435L58.1623 12.7888H57.2504L56.6706 10.8501C56.5265 10.3758 56.4064 9.89462 56.311 9.40828H56.292C56.2189 9.89487 56.0804 10.3824 55.9333 10.8501L55.3165 12.7888H54.3951L53.078 8.32435H54.1L54.6067 10.4468C54.7263 10.9523 54.8269 11.4294 54.9104 11.88H54.9294C55.0024 11.5042 55.122 11.0347 55.2975 10.4562L55.9333 8.3253H56.7437L57.3519 10.4108C57.499 10.9163 57.6186 11.4124 57.7116 11.881H57.7381C57.8027 11.4218 57.9042 10.9343 58.0418 10.4108L58.5855 8.3253L59.562 8.32435ZM64.7146 12.7888H63.7201V10.2253C63.7201 9.43574 63.4164 9.04003 62.8177 9.04003C62.2284 9.04003 61.8232 9.54555 61.8232 10.1334V12.7888H60.8288V9.60046C60.8288 9.2057 60.8193 8.78254 60.7918 8.3234H61.6666L61.7131 9.01258H61.7407C62.0083 8.53546 62.551 8.23252 63.1593 8.23252C64.0987 8.23252 64.7155 8.94915 64.7155 10.1154L64.7146 12.7888ZM67.4569 12.7888H66.4615V6.27576H67.4569V12.7888ZM71.0827 12.8901C69.7761 12.8901 68.9277 11.916 68.9277 10.5935C68.9277 9.21516 69.7931 8.23252 71.1558 8.23252C72.4454 8.23252 73.3108 9.16026 73.3108 10.5206C73.3117 11.916 72.4178 12.8901 71.0827 12.8901ZM71.1197 8.95767C70.4014 8.95767 69.9412 9.62791 69.9412 10.5651C69.9412 11.4843 70.4118 12.1546 71.1093 12.1546C71.8096 12.1546 72.2783 11.4379 72.2783 10.5462C72.2793 9.63738 71.82 8.95767 71.1197 8.95767ZM77.2317 12.7888L77.1596 12.2748H77.133C76.8293 12.6885 76.3862 12.8901 75.8244 12.8901C75.0226 12.8901 74.4532 12.3297 74.4532 11.5762C74.4532 10.4742 75.4107 9.90434 77.0685 9.90434V9.82198C77.0685 9.2341 76.7563 8.93968 76.1395 8.93968C75.6982 8.93968 75.3111 9.05044 74.9704 9.27102L74.7683 8.61876C75.182 8.36127 75.6982 8.23252 76.3046 8.23252C77.4736 8.23252 78.0639 8.84786 78.0639 10.0795V11.7238C78.0639 12.1745 78.0838 12.5238 78.1284 12.7898L77.2317 12.7888ZM77.095 10.5651C75.9905 10.5651 75.4363 10.8321 75.4363 11.4654C75.4363 11.934 75.722 12.1631 76.1186 12.1631C76.6244 12.1631 77.095 11.7778 77.095 11.2543V10.5651ZM82.8929 12.7888L82.8464 12.0722H82.8189C82.5332 12.6137 82.0531 12.8901 81.3822 12.8901C80.3033 12.8901 79.5043 11.9435 79.5043 10.6115C79.5043 9.21516 80.3327 8.23158 81.4638 8.23158C82.0626 8.23158 82.4867 8.43322 82.7259 8.83839H82.7458V6.27576H83.7412V11.5856C83.7412 12.0173 83.7517 12.4215 83.7782 12.7888H82.8929ZM82.7458 10.1618C82.7458 9.53703 82.3311 9.00406 81.6982 9.00406C80.9609 9.00406 80.5102 9.65631 80.5102 10.5746C80.5102 11.4749 80.978 12.0911 81.6783 12.0911C82.3036 12.0911 82.7458 11.5487 82.7458 10.9059V10.1618ZM90.0524 12.8901C88.7458 12.8901 87.8984 11.916 87.8984 10.5935C87.8984 9.21516 88.7638 8.23252 90.1264 8.23252C91.416 8.23252 92.2814 9.16026 92.2814 10.5206C92.2824 11.916 91.3895 12.8901 90.0524 12.8901ZM90.0894 8.95767C89.3721 8.95767 88.9118 9.62791 88.9118 10.5651C88.9118 11.4843 89.3815 12.1546 90.08 12.1546C90.7803 12.1546 91.249 11.4379 91.249 10.5462C91.2509 9.63738 90.7907 8.95767 90.0894 8.95767ZM97.6295 12.7888H96.6341V10.2253C96.6341 9.43574 96.3304 9.04003 95.7317 9.04003C95.1424 9.04003 94.7382 9.54555 94.7382 10.1334V12.7888H93.7428V9.60046C93.7428 9.2057 93.7333 8.78254 93.7057 8.3234H94.5807L94.6271 9.01258H94.6547C94.9213 8.53546 95.465 8.23158 96.0723 8.23158C97.0118 8.23158 97.6295 8.9482 97.6295 10.1145V12.7888ZM104.32 9.06843H103.226V11.2363C103.226 11.7882 103.418 12.0637 103.805 12.0637C103.981 12.0637 104.128 12.0448 104.246 12.0173L104.274 12.7709C104.081 12.8447 103.823 12.8816 103.502 12.8816C102.719 12.8816 102.25 12.4499 102.25 11.3196V9.06843H101.597V8.32435H102.25V7.50643L103.226 7.21201V8.3234H104.32V9.06843ZM109.585 12.7888H108.591V10.2442C108.591 9.4452 108.289 9.04098 107.689 9.04098C107.174 9.04098 106.694 9.3903 106.694 10.0975V12.7888H105.7V6.27576H106.694V8.95767H106.713C107.027 8.47108 107.48 8.23158 108.059 8.23158C109.006 8.23158 109.585 8.96619 109.585 10.1334V12.7888ZM114.978 10.7952H111.994C112.013 11.6405 112.574 12.1177 113.404 12.1177C113.845 12.1177 114.252 12.0438 114.61 11.9065L114.765 12.5957C114.342 12.7794 113.844 12.8712 113.264 12.8712C111.864 12.8712 111.036 11.9889 111.036 10.621C111.036 9.25208 111.884 8.22305 113.152 8.22305C114.295 8.22305 115.013 9.06843 115.013 10.3455C115.019 10.4962 115.008 10.6471 114.978 10.7952ZM114.067 10.088C114.067 9.39882 113.718 8.91223 113.083 8.91223C112.511 8.91223 112.06 9.40828 111.995 10.088H114.067Z" fill="white"/>
</g>
<defs>
<linearGradient id="paint0_linear_6212_15211" x1="93.9019" y1="38.0291" x2="93.9019" y2="-98.4991" gradientUnits="userSpaceOnUse">
<stop stop-color="#1A1A1A" stop-opacity="0.1"/>
<stop offset="0.123" stop-color="#212121" stop-opacity="0.151"/>
<stop offset="0.308" stop-color="#353535" stop-opacity="0.227"/>
<stop offset="0.532" stop-color="#575757" stop-opacity="0.318"/>
<stop offset="0.783" stop-color="#858585" stop-opacity="0.421"/>
<stop offset="1" stop-color="#B3B3B3" stop-opacity="0.51"/>
</linearGradient>
<clipPath id="clip0_6212_15211">
<rect width="128" height="38" fill="white"/>
</clipPath>
</defs>
</svg>
