<svg width="179" height="45" viewBox="0 0 179 45" fill="none" xmlns="http://www.w3.org/2000/svg">
<g clip-path="url(#clip0_6212_15082)">
<path fill-rule="evenodd" clip-rule="evenodd" d="M20.3047 1.01852C16.7142 1.47766 13.1534 3.23065 10.5651 5.8133C6.99601 9.37475 5.27884 14.1187 5.67245 19.3303C5.97724 23.3666 7.1487 26.1916 10.1922 30.2298C12.1015 32.7631 14.4003 35.3826 19.511 40.8488C20.7205 42.1425 21.8787 43.3839 22.0847 43.6074L22.4593 44.0139L23.0869 43.3634C25.3102 41.0583 29.8386 36.1305 31.6979 33.9928C35.4299 29.702 37.509 26.5545 38.4158 23.823C38.5592 23.3911 38.6938 22.9912 38.7148 22.9343C38.7447 22.853 38.182 22.8311 36.0722 22.8316L33.3915 22.8321L33.0849 23.394C31.4922 26.3126 28.6464 28.5259 25.4771 29.3107C24.2984 29.6027 23.6209 29.689 22.4972 29.6903C17.9899 29.6958 13.8542 27.1825 11.7817 23.1786C11.4142 22.4686 10.8157 20.851 10.8157 20.5678C10.8157 20.4445 11.9661 20.4336 24.9753 20.4336H39.1348L39.1884 20.1173C39.393 18.9084 39.3726 16.3653 39.1475 15.0188C38.7609 12.7069 37.785 10.2353 36.5279 8.38463C33.7754 4.33213 29.6179 1.73121 24.8006 1.04787C23.8558 0.913864 21.2557 0.896833 20.3047 1.01852ZM24.8169 5.92706C29.4564 6.94363 32.9777 10.2609 34.1354 14.7056C34.2485 15.1396 34.3227 15.5241 34.3003 15.5601C34.2612 15.6233 31.3618 15.671 31.3618 15.6085C31.3618 15.5916 31.3045 15.2501 31.2345 14.8496C31.013 13.5818 30.6536 13.2058 29.4245 12.9552C29.0653 12.882 28.7033 12.7857 28.6201 12.7413C28.3423 12.593 28.0659 12.1303 27.9674 11.649C27.8219 10.9375 27.3599 10.0821 26.9048 9.68162C26.1576 9.02407 25.4262 8.76193 24.3466 8.76499C23.5847 8.76706 23.5607 8.75135 23.4577 8.18151C23.3727 7.71121 23.0909 7.53728 22.4143 7.53728C21.6876 7.53728 21.4677 7.69583 21.3394 8.31213L21.2477 8.753L20.4453 8.76697C19.1962 8.7888 18.4826 9.05524 17.7709 9.76536C17.2841 10.2511 16.9824 10.8288 16.8064 11.6119C16.6264 12.4127 16.2919 12.7652 15.5784 12.9061C14.0952 13.199 13.6779 13.601 13.5127 14.8964C13.4101 15.7001 13.5478 15.6326 12.0125 15.6319C11.1264 15.6315 10.6501 15.6014 10.6501 15.5455C10.6501 15.4983 10.7254 15.1653 10.8175 14.8054C12.0212 10.101 15.8305 6.62453 20.6362 5.8443C21.6013 5.68765 23.935 5.73378 24.8169 5.92706ZM22.0001 10.844V12.0014H20.0283C18.73 12.0014 18.0261 11.971 17.9673 11.9123C17.7431 11.6886 18.2352 10.6843 18.786 10.2413C19.3018 9.82646 19.8359 9.69245 20.9852 9.68939L22.0001 9.68666V10.844ZM25.4947 9.95864C26.0495 10.2305 26.4203 10.6248 26.7053 11.246C27.0379 11.9709 27.0759 11.9563 24.7872 11.9822L22.8285 12.0044V10.8374V9.67046L23.9263 9.69923C24.9283 9.72552 25.065 9.74809 25.4947 9.95864ZM17.8586 15.4115C18.2666 15.6886 18.4563 15.9934 18.4995 16.441C18.5793 17.2709 18.0561 17.8763 17.2075 17.9355C16.8191 17.9626 16.6912 17.9353 16.457 17.7749C15.6636 17.2317 15.5238 16.271 16.1456 15.6362C16.473 15.3021 16.6357 15.2372 17.162 15.2307C17.4702 15.2269 17.6589 15.2759 17.8586 15.4115ZM28.2706 15.3624C28.9549 15.6864 29.2227 16.6915 28.7919 17.3188C28.1747 18.2177 26.8702 18.1469 26.3799 17.1879C26.0578 16.5579 26.2958 15.7629 26.9203 15.3829C27.2434 15.1864 27.8784 15.1767 28.2706 15.3624ZM17.969 22.175C17.762 22.2517 16.0941 23.4458 15.9474 23.6221C15.8031 23.7956 15.8268 24.135 15.9962 24.3217C16.1949 24.5409 16.5144 24.5265 16.8747 24.2822L17.1727 24.0801L17.4117 24.3308C17.845 24.7853 18.6334 25.329 19.3945 25.6979C21.2924 26.6183 23.6546 26.599 25.5503 25.6477C26.2205 25.3115 27.0193 24.7478 27.4171 24.3306L27.6563 24.0798L27.922 24.2821C28.2368 24.5216 28.6309 24.544 28.8221 24.3332C29.0198 24.1151 28.9958 23.7188 28.7728 23.5216C28.5244 23.3019 27.1189 22.293 26.894 22.1729C26.5423 21.985 26.1424 22.2681 26.1424 22.7048C26.1424 22.9217 26.2058 23.031 26.44 23.2185L26.7376 23.4567L26.1428 23.9296C25.4524 24.4785 24.5987 24.9027 23.7933 25.0973C23.0672 25.2728 21.7783 25.2764 21.0364 25.1051C20.2734 24.9289 19.2584 24.4235 18.6146 23.8991L18.0873 23.4695L18.3868 23.1958C18.5987 23.0021 18.6862 22.8521 18.6862 22.6827C18.6862 22.316 18.3089 22.0489 17.969 22.175Z" fill="#FEA735"/>
</g>
<path d="M76.7221 28.9821C76.7968 29.3927 77.0021 29.7661 77.3381 30.1021C77.6741 30.4381 77.8421 30.6994 77.8421 30.8861V30.9701C77.8421 31.2314 77.6461 31.3621 77.2541 31.3621H72.9981C72.6061 31.3621 72.4101 31.2314 72.4101 30.9701V30.8861C72.4101 30.7367 72.5875 30.4847 72.9421 30.1301C73.2968 29.7754 73.4368 29.3927 73.3621 28.9821L71.1221 16.0741L65.9701 30.6621C65.8021 31.1101 65.5315 31.3341 65.1581 31.3341C64.7288 31.3341 64.4301 31.1194 64.2621 30.6901L58.7741 15.7381L56.7021 28.9821C56.6461 29.3741 56.8048 29.7567 57.1781 30.1301C57.5701 30.4847 57.7661 30.7367 57.7661 30.8861V30.9701C57.7661 31.2314 57.5608 31.3621 57.1501 31.3621H54.3221C53.9115 31.3621 53.7061 31.2314 53.7061 30.9701V30.8861C53.7061 30.6994 53.8741 30.4287 54.2101 30.0741C54.5648 29.7194 54.7701 29.3554 54.8261 28.9821L57.3461 13.8621C57.4021 13.4514 57.2528 13.0781 56.8981 12.7421C56.5621 12.3874 56.3941 12.1354 56.3941 11.9861V11.9021C56.3941 11.6221 56.5621 11.4821 56.8981 11.4821H61.4061C61.7608 11.4821 61.9381 11.6221 61.9381 11.9021V11.9861C61.9381 12.0981 61.8448 12.2474 61.6581 12.4341C61.4901 12.6207 61.3408 12.8354 61.2101 13.0781C61.0795 13.3021 61.0701 13.5634 61.1821 13.8621L65.6061 26.7141L70.1141 13.7221C70.2261 13.3487 70.1141 12.9941 69.7781 12.6581C69.4421 12.3034 69.2741 12.0794 69.2741 11.9861V11.9021C69.2741 11.6221 69.4421 11.4821 69.7781 11.4821H74.3981C74.7341 11.4821 74.9021 11.6127 74.9021 11.8741V11.9581C74.9021 12.1074 74.7155 12.3687 74.3421 12.7421C73.9688 13.1154 73.8288 13.5447 73.9221 14.0301L76.7221 28.9821ZM90.6817 17.6981C91.2977 17.6234 91.6057 17.7821 91.6057 18.1741V29.9621C91.6057 32.2207 90.971 33.9567 89.7017 35.1701C88.451 36.3834 86.827 36.9901 84.8297 36.9901C83.1683 36.9901 81.7777 36.5794 80.6577 35.7581C79.5563 34.9367 79.0057 34.0034 79.0057 32.9581C79.0057 32.5847 79.127 32.2674 79.3697 32.0061C79.631 31.7634 79.9763 31.6421 80.4057 31.6421C80.8537 31.6421 81.227 31.8661 81.5257 32.3141C81.843 32.7621 82.0857 33.2474 82.2537 33.7701C82.4403 34.3114 82.7857 34.8061 83.2897 35.2541C83.7937 35.7207 84.447 35.9541 85.2497 35.9541C87.303 35.9541 88.3297 34.1061 88.3297 30.4101V29.7101C87.4523 30.8114 86.1643 31.3621 84.4657 31.3621C82.991 31.3621 81.7683 30.8301 80.7977 29.7661C79.8457 28.6834 79.3697 27.2741 79.3697 25.5381V20.6941C79.3697 20.2647 79.1923 19.8821 78.8377 19.5461C78.483 19.1914 78.3057 18.9487 78.3057 18.8181V18.7341C78.3057 18.4541 78.4737 18.2861 78.8097 18.2301L81.7497 17.7541C82.3843 17.6607 82.7017 17.8007 82.7017 18.1741L82.6457 25.8461C82.6457 27.1714 82.879 28.1981 83.3457 28.9261C83.8123 29.6541 84.475 30.0181 85.3337 30.0181C86.1923 30.0181 86.9017 29.6821 87.4617 29.0101C88.0403 28.3194 88.3297 27.4514 88.3297 26.4061V20.6941C88.3297 20.2647 88.143 19.8821 87.7697 19.5461C87.415 19.1914 87.2377 18.9487 87.2377 18.8181V18.7341C87.2377 18.4541 87.3963 18.2861 87.7137 18.2301L90.6817 17.6981ZM103.652 31.3621C103.26 31.3621 103.064 31.2314 103.064 30.9701V30.8861C103.064 30.7181 103.242 30.4754 103.596 30.1581C103.97 29.8221 104.156 29.4487 104.156 29.0381V12.9941H101.104C100.656 12.9941 100.264 13.2554 99.9282 13.7781C99.6109 14.3007 99.3309 14.8234 99.0882 15.3461C98.8456 15.8687 98.5936 16.1301 98.3322 16.1301H97.9962C97.6229 16.1301 97.4642 15.9154 97.5202 15.4861L98.0242 12.1821C98.0802 11.7154 98.3416 11.4821 98.8082 11.4821H112.864C113.331 11.4821 113.602 11.7154 113.676 12.1821L114.292 15.5141C114.33 15.7007 114.302 15.8501 114.208 15.9621C114.115 16.0741 113.984 16.1301 113.816 16.1301H113.48C113.275 16.1301 113.06 15.9714 112.836 15.6541C112.612 15.3181 112.416 14.9541 112.248 14.5621C112.08 14.1701 111.847 13.8154 111.548 13.4981C111.25 13.1621 110.923 12.9941 110.568 12.9941H107.516V29.0381C107.516 29.4487 107.703 29.8221 108.076 30.1581C108.45 30.4754 108.636 30.7181 108.636 30.8861V30.9701C108.636 31.2314 108.431 31.3621 108.02 31.3621H103.652ZM126.408 18.9581C126.408 19.0701 126.314 19.2101 126.128 19.3781C125.941 19.5274 125.754 19.7327 125.568 19.9941C125.381 20.2554 125.288 20.5634 125.288 20.9181V29.0381C125.288 29.4487 125.465 29.8221 125.82 30.1581C126.174 30.4941 126.352 30.7367 126.352 30.8861V30.9701C126.352 31.2314 126.193 31.3621 125.876 31.3621H122.964C122.609 31.3621 122.432 31.1847 122.432 30.8301V29.7101C121.517 30.9981 120.173 31.6421 118.4 31.6421C116.608 31.6421 115.068 30.9981 113.78 29.7101C112.51 28.4221 111.876 26.7234 111.876 24.6141C111.876 22.5794 112.501 20.9087 113.752 19.6021C115.021 18.2954 116.589 17.6421 118.456 17.6421C120.08 17.6421 121.405 18.2301 122.432 19.4061V18.3701C122.432 18.1274 122.525 17.9501 122.712 17.8381C122.898 17.7261 123.15 17.7074 123.468 17.7821L125.904 18.2861C126.24 18.3794 126.408 18.5754 126.408 18.8741V18.9581ZM119.156 30.5781C119.921 30.5781 120.602 30.2607 121.2 29.6261C121.816 28.9914 122.124 28.1047 122.124 26.9661V22.4861C122.124 21.5527 121.769 20.6941 121.06 19.9101C120.35 19.1074 119.52 18.7061 118.568 18.7061C117.522 18.7061 116.682 19.1354 116.048 19.9941C115.413 20.8341 115.086 21.9914 115.068 23.4661C115.03 25.4261 115.385 27.0967 116.132 28.4781C116.897 29.8594 117.905 30.5594 119.156 30.5781ZM139.566 28.9541C139.753 29.1967 139.995 29.4487 140.294 29.7101C140.611 29.9527 140.854 30.1674 141.022 30.3541C141.19 30.5221 141.274 30.6901 141.274 30.8581V30.9701C141.274 31.2314 141.106 31.3621 140.77 31.3621H135.926C135.609 31.3621 135.45 31.2221 135.45 30.9421V30.8581C135.45 30.7274 135.562 30.5687 135.786 30.3821C136.01 30.1954 136.15 30.0274 136.206 29.8781C136.281 29.7101 136.169 29.3834 135.87 28.8981L133.49 25.9301L130.858 29.0101C130.559 29.4581 130.438 29.7661 130.494 29.9341C130.55 30.0834 130.69 30.2514 130.914 30.4381C131.138 30.6061 131.25 30.7461 131.25 30.8581V30.9421C131.25 31.2221 131.082 31.3621 130.746 31.3621H127.302C126.966 31.3621 126.798 31.2314 126.798 30.9701V30.8581C126.798 30.6901 126.891 30.5407 127.078 30.4101C127.265 30.2607 127.545 30.0554 127.918 29.7941C128.291 29.5327 128.618 29.2341 128.898 28.8981L132.566 24.7261L129.094 20.3861C128.814 20.0127 128.506 19.7047 128.17 19.4621C127.853 19.2007 127.619 19.0141 127.47 18.9021C127.339 18.7714 127.274 18.6127 127.274 18.4261V18.3141C127.274 18.0527 127.433 17.9221 127.75 17.9221H132.538C132.874 17.9221 133.042 18.0621 133.042 18.3421V18.4261C133.042 18.5754 132.958 18.7714 132.79 19.0141C132.622 19.2381 132.519 19.4341 132.482 19.6021C132.445 19.7514 132.538 20.0221 132.762 20.4141L135.086 23.3261L137.718 20.4141C137.979 20.0221 138.073 19.7421 137.998 19.5741C137.942 19.4061 137.802 19.2101 137.578 18.9861C137.373 18.7434 137.27 18.5567 137.27 18.4261V18.3421C137.27 18.0621 137.429 17.9221 137.746 17.9221H140.63C140.947 17.9221 141.106 18.0527 141.106 18.3141V18.4261C141.106 18.5941 141.041 18.7621 140.91 18.9301C140.798 19.0794 140.583 19.2941 140.266 19.5741C139.967 19.8354 139.706 20.1061 139.482 20.3861L135.982 24.4461L139.566 28.9541ZM144.593 15.5981C143.902 15.5981 143.342 15.4021 142.913 15.0101C142.483 14.6181 142.269 14.1141 142.269 13.4981C142.269 12.8821 142.483 12.3781 142.913 11.9861C143.342 11.5941 143.902 11.3981 144.593 11.3981C145.265 11.3981 145.806 11.5941 146.217 11.9861C146.646 12.3781 146.861 12.8821 146.861 13.4981C146.861 14.1141 146.646 14.6181 146.217 15.0101C145.806 15.4021 145.265 15.5981 144.593 15.5981ZM142.521 31.3621C142.129 31.3621 141.933 31.2221 141.933 30.9421V30.8301C141.933 30.6621 142.101 30.4194 142.437 30.1021C142.791 29.7847 142.969 29.4207 142.969 29.0101V21.6741C142.969 21.2447 142.791 20.8434 142.437 20.4701C142.101 20.0967 141.933 19.8541 141.933 19.7421V19.6581C141.933 19.5087 142.101 19.3407 142.437 19.1541L145.237 17.7541C145.554 17.6234 145.797 17.6141 145.965 17.7261C146.151 17.8194 146.245 17.9874 146.245 18.2301V29.0101C146.245 29.4207 146.431 29.7847 146.805 30.1021C147.197 30.4194 147.393 30.6621 147.393 30.8301V30.9421C147.393 31.2221 147.187 31.3621 146.777 31.3621H142.521Z" fill="#FEA735"/>
<defs>
<clipPath id="clip0_6212_15082">
<rect width="44.7242" height="44.7242" fill="white"/>
</clipPath>
</defs>
</svg>
