<svg width="14" height="14" viewBox="0 0 14 14" fill="none" xmlns="http://www.w3.org/2000/svg">
<path d="M3.99825 1.42612C4.73508 1.9636 5.2924 2.71897 5.76694 3.41189L6.13869 3.9592C6.3754 4.30516 6.33632 4.77446 6.03579 5.07501L5.24454 5.86621L5.32829 6.04323C5.53231 6.45683 5.88444 7.05293 6.41484 7.58331C6.82282 7.99129 7.26969 8.29381 7.64245 8.50456L7.85631 8.62012L8.04695 8.7143C8.07649 8.72826 8.10484 8.74135 8.13188 8.75359L8.92276 7.96277C9.22353 7.66194 9.69486 7.62227 10.0416 7.86255L10.6331 8.27261C11.3049 8.74522 12.0064 9.28389 12.5521 9.98267C12.7514 10.2378 12.7809 10.5715 12.6621 10.8489C12.174 11.9878 10.9387 12.9578 9.65374 12.9105L9.47843 12.9008L9.34254 12.8891L9.19216 12.8722L9.02791 12.8494L8.85041 12.8199L8.66028 12.7828L8.45813 12.7374L8.24459 12.6827L8.02028 12.6181L7.78581 12.5427C6.70879 12.1778 5.34215 11.4604 3.93996 10.0582C2.53775 8.65595 1.8203 7.28932 1.45542 6.21231L1.38 5.97784L1.31538 5.75353L1.26075 5.53999L1.21529 5.33785C1.20158 5.27243 1.18926 5.20902 1.1782 5.14772L1.14867 4.97022L1.12589 4.80597L1.10904 4.6556L1.09731 4.51971L1.08757 4.34441C1.04044 3.06373 2.02149 1.81937 3.15526 1.33347C3.4213 1.21945 3.74352 1.24032 3.99825 1.42612ZM3.45657 2.48097C2.83158 2.80792 2.22596 3.5546 2.25345 4.30151L2.26553 4.49308L2.27756 4.61225L2.29474 4.74613L2.31796 4.89411L2.34808 5.05552L2.38599 5.22973L2.43255 5.4161L2.48865 5.61398L2.55515 5.82273C2.57915 5.89405 2.60503 5.96708 2.63293 6.0417L2.72288 6.27027L2.82585 6.50777C3.19179 7.31364 3.78953 8.25782 4.76492 9.23321C5.74031 10.2086 6.6845 10.8063 7.49037 11.1723L7.72788 11.2753L7.95644 11.3652C8.03106 11.3931 8.10409 11.419 8.17542 11.443L8.38416 11.5095L8.58204 11.5656L8.76841 11.6121L8.94262 11.65L9.10403 11.6802L9.252 11.7034L9.38589 11.7206L9.50504 11.7326L9.69661 11.7447C10.4342 11.7718 11.1866 11.1698 11.5118 10.5528C11.0966 10.0656 10.581 9.6658 10.0121 9.26312L9.57621 8.95916L9.46492 9.07524L9.22854 9.33372L9.10291 9.46587C8.76094 9.81401 8.36228 10.11 7.88402 9.91652L7.75196 9.86122L7.59104 9.78905C7.56202 9.77558 7.53196 9.76138 7.50093 9.74644L7.30376 9.64781L7.08715 9.53079C6.63697 9.27793 6.09268 8.91106 5.58988 8.40826C5.08708 7.90546 4.7202 7.36117 4.46734 6.911L4.35031 6.69438L4.25168 6.49722L4.13689 6.24618L4.08159 6.11412C3.90009 5.66538 4.14954 5.28644 4.4688 4.95869L4.59937 4.83027L4.92467 4.53139L5.04086 4.42L4.76518 4.01609C4.35528 3.42164 3.95385 2.88426 3.45657 2.48097ZM8.74333 3.52303L8.811 3.53098C9.2356 3.60584 9.62562 3.81322 9.92516 4.12336C10.2246 4.43351 10.4183 4.83052 10.4783 5.25748C10.5231 5.57651 10.3008 5.87146 9.9818 5.91632C9.68556 5.95797 9.41005 5.76927 9.33633 5.48667L9.32299 5.41985C9.29726 5.23687 9.21425 5.06672 9.08592 4.9338C8.97893 4.82303 8.84504 4.74285 8.69805 4.70063L8.6084 4.67992C8.29119 4.62398 8.07932 4.32142 8.13526 4.00415C8.18721 3.70954 8.45181 3.50583 8.74333 3.52303ZM8.74817 1.74997C9.20778 1.74997 9.66295 1.8405 10.0876 2.01639C10.5122 2.19228 10.898 2.45009 11.2231 2.77509C11.5481 3.1001 11.8059 3.48594 11.9818 3.91058C12.1576 4.33521 12.2482 4.79034 12.2482 5.24997C12.2482 5.57213 11.987 5.8333 11.6648 5.8333C11.3657 5.8333 11.1191 5.60811 11.0854 5.318L11.0815 5.24997C11.0815 4.94355 11.0212 4.64013 10.9039 4.35704C10.7866 4.07395 10.6148 3.81672 10.3981 3.60005C10.1814 3.38338 9.92423 3.21151 9.64108 3.09425C9.40517 2.99653 9.15516 2.93833 8.90105 2.92165L8.74817 2.91663C8.42599 2.91663 8.16484 2.65546 8.16484 2.3333C8.16484 2.01114 8.42599 1.74997 8.74817 1.74997Z" fill="#FEA735"/>
</svg>
