<svg width="129" height="39" viewBox="0 0 129 39" fill="none" xmlns="http://www.w3.org/2000/svg">
<g clip-path="url(#clip0_3396_6558)">
<path fill-rule="evenodd" clip-rule="evenodd" d="M17.6779 0.886697C14.5519 1.28644 11.4518 2.81262 9.19841 5.06114C6.09106 8.16181 4.59605 12.292 4.93874 16.8293C5.20409 20.3434 6.22399 22.8029 8.87376 26.3187C10.536 28.5242 12.5374 30.8048 16.9869 35.5638C18.0399 36.6901 19.0482 37.7709 19.2276 37.9655L19.5537 38.3194L20.1001 37.753C22.0358 35.7461 25.9783 31.4559 27.597 29.5948C30.8462 25.8591 32.6563 23.1189 33.4458 20.7408C33.5707 20.3647 33.6878 20.0166 33.7061 19.9671C33.7322 19.8962 33.2423 19.8772 31.4054 19.8776L29.0715 19.878L28.8046 20.3672C27.4179 22.9082 24.9403 24.8352 22.1811 25.5185C21.1549 25.7727 20.565 25.8478 19.5867 25.849C15.6625 25.8537 12.0619 23.6656 10.2576 20.1797C9.93765 19.5616 9.4166 18.1533 9.4166 17.9067C9.4166 17.7994 10.4181 17.7899 21.7442 17.7899H34.0718L34.1184 17.5145C34.2966 16.462 34.2788 14.2479 34.0829 13.0756C33.7462 11.0628 32.8966 8.91105 31.8022 7.29979C29.4058 3.77159 25.7862 1.50718 21.5921 0.912248C20.7695 0.79558 18.5058 0.780752 17.6779 0.886697ZM21.6063 5.16017C25.6455 6.04522 28.7113 8.93329 29.7192 12.8029C29.8176 13.1808 29.8823 13.5155 29.8628 13.5469C29.8287 13.6019 27.3044 13.6434 27.3044 13.589C27.3044 13.5743 27.2546 13.277 27.1936 12.9283C27.0007 11.8246 26.6879 11.4972 25.6178 11.279C25.305 11.2153 24.9899 11.1315 24.9175 11.0928C24.6756 10.9637 24.4349 10.5608 24.3492 10.1418C24.2225 9.52239 23.8203 8.77768 23.424 8.42897C22.7735 7.8565 22.1368 7.62827 21.1969 7.63094C20.5335 7.63274 20.5127 7.61906 20.4229 7.12295C20.3489 6.71349 20.1036 6.56206 19.5146 6.56206C18.8818 6.56206 18.6904 6.70011 18.5788 7.23667L18.4989 7.6205L17.8003 7.63266C16.7128 7.65166 16.0916 7.88363 15.4719 8.50188C15.0481 8.9248 14.7854 9.42774 14.6322 10.1095C14.4755 10.8067 14.1843 11.1136 13.5631 11.2363C12.2718 11.4913 11.9085 11.8413 11.7646 12.9691C11.6753 13.6688 11.7952 13.61 10.4585 13.6095C9.68708 13.6091 9.27234 13.5828 9.27234 13.5342C9.27234 13.4931 9.33791 13.2032 9.41811 12.8899C10.4661 8.79409 13.7825 5.76741 17.9665 5.08813C18.8068 4.95174 20.8385 4.9919 21.6063 5.16017ZM19.1539 9.44099V10.4486H17.4373C16.3069 10.4486 15.6941 10.4221 15.6429 10.3711C15.4477 10.1763 15.8761 9.30194 16.3557 8.91623C16.8048 8.55507 17.2698 8.4384 18.2703 8.43574L19.1539 8.43336V9.44099ZM22.1964 8.67016C22.6795 8.90687 23.0022 9.25011 23.2504 9.79092C23.54 10.4221 23.5731 10.4094 21.5805 10.4319L19.8752 10.4512V9.43523V8.41926L20.8309 8.4443C21.7033 8.46719 21.8223 8.48684 22.1964 8.67016ZM15.5482 13.4175C15.9035 13.6588 16.0686 13.9241 16.1062 14.3139C16.1757 15.0364 15.7202 15.5635 14.9814 15.615C14.6432 15.6386 14.5319 15.6148 14.328 15.4751C13.6373 15.0022 13.5155 14.1658 14.0569 13.6132C14.3419 13.3223 14.4835 13.2658 14.9418 13.2601C15.2101 13.2568 15.3744 13.2995 15.5482 13.4175ZM24.6132 13.3747C25.2089 13.6569 25.4421 14.5319 25.0671 15.0781C24.5297 15.8606 23.394 15.799 22.9671 14.9641C22.6867 14.4156 22.8938 13.7235 23.4375 13.3927C23.7188 13.2215 24.2717 13.2131 24.6132 13.3747ZM15.6444 19.306C15.4642 19.3728 14.012 20.4123 13.8844 20.5659C13.7587 20.7169 13.7793 21.0124 13.9268 21.175C14.0998 21.3658 14.378 21.3533 14.6916 21.1406L14.9511 20.9646L15.1592 21.1828C15.5364 21.5786 16.2228 22.0519 16.8854 22.3731C18.5378 23.1744 20.5944 23.1576 22.2448 22.3294C22.8283 22.0367 23.5238 21.5459 23.8701 21.1827L24.0783 20.9643L24.3097 21.1404C24.5837 21.349 24.9268 21.3685 25.0933 21.1849C25.2655 20.995 25.2446 20.6501 25.0504 20.4783C24.8342 20.2871 23.6105 19.4087 23.4147 19.3041C23.1085 19.1406 22.7603 19.387 22.7603 19.7673C22.7603 19.956 22.8155 20.0513 23.0194 20.2145L23.2785 20.4219L22.7607 20.8335C22.1596 21.3114 21.4164 21.6808 20.7151 21.8502C20.083 22.003 18.9608 22.0061 18.3149 21.857C17.6506 21.7036 16.767 21.2636 16.2065 20.807L15.7474 20.433L16.0081 20.1947C16.1926 20.0261 16.2688 19.8955 16.2688 19.748C16.2688 19.4287 15.9403 19.1961 15.6444 19.306Z" fill="#FEA735"/>
</g>
<path d="M66.5075 24.3969C66.5725 24.7545 66.7513 25.0795 67.0438 25.372C67.3363 25.6645 67.4826 25.8921 67.4826 26.0546V26.1277C67.4826 26.3552 67.3119 26.469 66.9707 26.469H63.2653C62.924 26.469 62.7534 26.3552 62.7534 26.1277V26.0546C62.7534 25.9246 62.9078 25.7052 63.2165 25.3964C63.5253 25.0876 63.6472 24.7545 63.5822 24.3969L61.632 13.1589L57.1466 25.8596C57.0003 26.2496 56.7647 26.4446 56.4396 26.4446C56.0658 26.4446 55.8058 26.2577 55.6595 25.8839L50.8816 12.8664L49.0777 24.3969C49.0289 24.7382 49.167 25.0714 49.4921 25.3964C49.8334 25.7052 50.004 25.9246 50.004 26.0546V26.1277C50.004 26.3552 49.8252 26.469 49.4677 26.469H47.0056C46.648 26.469 46.4693 26.3552 46.4693 26.1277V26.0546C46.4693 25.8921 46.6155 25.6564 46.9081 25.3476C47.2168 25.0389 47.3956 24.7219 47.4444 24.3969L49.6383 11.2331C49.6871 10.8756 49.5571 10.5506 49.2483 10.258C48.9558 9.94925 48.8095 9.72985 48.8095 9.59984V9.5267C48.8095 9.28293 48.9558 9.16104 49.2483 9.16104H53.1731C53.4818 9.16104 53.6362 9.28293 53.6362 9.5267V9.59984C53.6362 9.69734 53.555 9.82736 53.3925 9.98987C53.2462 10.1524 53.1162 10.3393 53.0024 10.5506C52.8887 10.7456 52.8805 10.9731 52.978 11.2331L56.8297 22.4223L60.7544 11.1112C60.8519 10.7862 60.7544 10.4774 60.4619 10.1849C60.1694 9.87611 60.0231 9.68109 60.0231 9.59984V9.5267C60.0231 9.28293 60.1694 9.16104 60.4619 9.16104H64.4842C64.7767 9.16104 64.923 9.2748 64.923 9.50233V9.57546C64.923 9.70547 64.7604 9.93299 64.4354 10.258C64.1104 10.5831 63.9885 10.9568 64.0698 11.3794L66.5075 24.3969ZM78.661 14.5728C79.1973 14.5078 79.4654 14.646 79.4654 14.9872V25.2501C79.4654 27.2166 78.9129 28.728 77.8077 29.7843C76.7189 30.8407 75.305 31.3689 73.5661 31.3689C72.1197 31.3689 70.9089 31.0113 69.9338 30.2962C68.975 29.5812 68.4956 28.7686 68.4956 27.8585C68.4956 27.5335 68.6012 27.2572 68.8125 27.0297C69.04 26.8184 69.3407 26.7128 69.7144 26.7128C70.1045 26.7128 70.4295 26.9078 70.6895 27.2978C70.9658 27.6879 71.1771 28.1104 71.3234 28.5655C71.4859 29.0367 71.7865 29.4674 72.2253 29.8575C72.6641 30.2637 73.2329 30.4669 73.9317 30.4669C75.7194 30.4669 76.6133 28.858 76.6133 25.6402V25.0307C75.8494 25.9896 74.7281 26.469 73.2492 26.469C71.9653 26.469 70.9008 26.0058 70.0557 25.0795C69.2269 24.1369 68.8125 22.9099 68.8125 21.3985V17.1812C68.8125 16.8074 68.6581 16.4743 68.3493 16.1817C68.0405 15.873 67.8861 15.6617 67.8861 15.5479V15.4748C67.8861 15.231 68.0324 15.0847 68.3249 15.036L70.8846 14.6216C71.4371 14.5403 71.7134 14.6622 71.7134 14.9872L71.6646 21.6666C71.6646 22.8205 71.8678 23.7143 72.2741 24.3482C72.6804 24.982 73.2573 25.2989 74.0049 25.2989C74.7524 25.2989 75.37 25.0064 75.8576 24.4213C76.3614 23.82 76.6133 23.0643 76.6133 22.1542V17.1812C76.6133 16.8074 76.4507 16.4743 76.1257 16.1817C75.8169 15.873 75.6625 15.6617 75.6625 15.5479V15.4748C75.6625 15.231 75.8007 15.0847 76.0769 15.036L78.661 14.5728ZM89.9534 26.469C89.6121 26.469 89.4415 26.3552 89.4415 26.1277V26.0546C89.4415 25.9083 89.5959 25.697 89.9046 25.4208C90.2297 25.1282 90.3922 24.8032 90.3922 24.4457V10.4774H87.7351C87.345 10.4774 87.0037 10.7049 86.7112 11.16C86.4349 11.615 86.1912 12.0701 85.9799 12.5251C85.7686 12.9802 85.5492 13.2077 85.3217 13.2077H85.0292C84.7041 13.2077 84.566 13.0208 84.6148 12.647L85.0535 9.77048C85.1023 9.36419 85.3298 9.16104 85.7361 9.16104H97.9736C98.3799 9.16104 98.6155 9.36419 98.6805 9.77048L99.2168 12.6714C99.2493 12.8339 99.2249 12.9639 99.1437 13.0614C99.0624 13.1589 98.9487 13.2077 98.8024 13.2077H98.5099C98.3311 13.2077 98.1442 13.0696 97.9492 12.7933C97.7542 12.5007 97.5835 12.1838 97.4373 11.8426C97.291 11.5013 97.0879 11.1925 96.8278 10.9162C96.5678 10.6237 96.2834 10.4774 95.9746 10.4774H93.3175V24.4457C93.3175 24.8032 93.48 25.1282 93.805 25.4208C94.1301 25.697 94.2926 25.9083 94.2926 26.0546V26.1277C94.2926 26.3552 94.1138 26.469 93.7563 26.469H89.9534ZM109.765 15.6698C109.765 15.7673 109.684 15.8892 109.521 16.0355C109.359 16.1655 109.196 16.3442 109.033 16.5718C108.871 16.7993 108.79 17.0674 108.79 17.3762V24.4457C108.79 24.8032 108.944 25.1282 109.253 25.4208C109.562 25.7133 109.716 25.9246 109.716 26.0546V26.1277C109.716 26.3552 109.578 26.469 109.302 26.469H106.766C106.458 26.469 106.303 26.3146 106.303 26.0058V25.0307C105.507 26.1521 104.337 26.7128 102.793 26.7128C101.233 26.7128 99.892 26.1521 98.7706 25.0307C97.6655 23.9094 97.1129 22.4305 97.1129 20.594C97.1129 18.8226 97.6574 17.3681 98.7462 16.2305C99.8513 15.0929 101.216 14.5241 102.842 14.5241C104.256 14.5241 105.409 15.036 106.303 16.0598V15.1579C106.303 14.9466 106.384 14.7922 106.547 14.6947C106.709 14.5972 106.929 14.581 107.205 14.646L109.326 15.0848C109.619 15.166 109.765 15.3366 109.765 15.5967V15.6698ZM103.451 25.7864C104.117 25.7864 104.711 25.5101 105.231 24.9576C105.767 24.405 106.035 23.6331 106.035 22.6417V18.7414C106.035 17.9288 105.726 17.1812 105.109 16.4986C104.491 15.7998 103.768 15.4504 102.939 15.4504C102.029 15.4504 101.298 15.8242 100.745 16.5718C100.193 17.3031 99.9082 18.3107 99.892 19.5946C99.8594 21.301 100.168 22.7555 100.818 23.9581C101.485 25.1607 102.362 25.7702 103.451 25.7864ZM121.221 24.3725C121.383 24.5838 121.594 24.8032 121.854 25.0307C122.131 25.242 122.342 25.4289 122.488 25.5914C122.635 25.7377 122.708 25.8839 122.708 26.0302V26.1277C122.708 26.3552 122.561 26.469 122.269 26.469H118.052C117.775 26.469 117.637 26.3471 117.637 26.1033V26.0302C117.637 25.9164 117.735 25.7783 117.93 25.6158C118.125 25.4533 118.247 25.307 118.295 25.177C118.36 25.0307 118.263 24.7463 118.003 24.3238L115.931 21.7398L113.639 24.4213C113.379 24.8113 113.274 25.0795 113.322 25.2257C113.371 25.3558 113.493 25.502 113.688 25.6645C113.883 25.8108 113.981 25.9327 113.981 26.0302V26.1033C113.981 26.3471 113.834 26.469 113.542 26.469H110.543C110.251 26.469 110.105 26.3552 110.105 26.1277V26.0302C110.105 25.8839 110.186 25.7539 110.348 25.6402C110.511 25.5101 110.755 25.3314 111.08 25.1039C111.405 24.8763 111.689 24.6163 111.933 24.3238L115.126 20.6916L112.104 16.9131C111.86 16.588 111.592 16.3199 111.299 16.1086C111.023 15.8811 110.82 15.7186 110.69 15.6211C110.576 15.5073 110.519 15.3692 110.519 15.2066V15.1091C110.519 14.8816 110.657 14.7678 110.933 14.7678H115.102C115.394 14.7678 115.541 14.8897 115.541 15.1335V15.2066C115.541 15.3366 115.468 15.5073 115.321 15.7186C115.175 15.9136 115.086 16.0842 115.053 16.2305C115.021 16.3605 115.102 16.5961 115.297 16.9374L117.32 19.4727L119.612 16.9374C119.839 16.5961 119.921 16.3524 119.856 16.2061C119.807 16.0598 119.685 15.8892 119.49 15.6942C119.311 15.4829 119.222 15.3204 119.222 15.2066V15.1335C119.222 14.8897 119.36 14.7678 119.636 14.7678H122.147C122.423 14.7678 122.561 14.8816 122.561 15.1091V15.2066C122.561 15.3529 122.505 15.4992 122.391 15.6454C122.293 15.7754 122.106 15.9623 121.83 16.2061C121.57 16.4336 121.343 16.6693 121.148 16.9131L118.1 20.4478L121.221 24.3725ZM125.597 12.7445C124.996 12.7445 124.508 12.5739 124.135 12.2326C123.761 11.8913 123.574 11.4525 123.574 10.9162C123.574 10.3799 123.761 9.94112 124.135 9.59984C124.508 9.25855 124.996 9.08791 125.597 9.08791C126.182 9.08791 126.654 9.25855 127.011 9.59984C127.385 9.94112 127.572 10.3799 127.572 10.9162C127.572 11.4525 127.385 11.8913 127.011 12.2326C126.654 12.5739 126.182 12.7445 125.597 12.7445ZM123.793 26.469C123.452 26.469 123.281 26.3471 123.281 26.1033V26.0058C123.281 25.8596 123.428 25.6483 123.72 25.372C124.029 25.0957 124.183 24.7788 124.183 24.4213V18.0344C124.183 17.6606 124.029 17.3112 123.72 16.9862C123.428 16.6612 123.281 16.4499 123.281 16.3524V16.2792C123.281 16.1492 123.428 16.003 123.72 15.8404L126.158 14.6216C126.434 14.5078 126.645 14.4997 126.792 14.5972C126.954 14.6785 127.035 14.8247 127.035 15.036V24.4213C127.035 24.7788 127.198 25.0957 127.523 25.372C127.864 25.6483 128.035 25.8596 128.035 26.0058V26.1033C128.035 26.3471 127.856 26.469 127.499 26.469H123.793Z" fill="#FEA735"/>
<defs>
<clipPath id="clip0_3396_6558">
<rect width="38.9379" height="38.9379" fill="white"/>
</clipPath>
</defs>
</svg>
