<svg width="14" height="14" viewBox="0 0 14 14" fill="none" xmlns="http://www.w3.org/2000/svg">
<path fill-rule="evenodd" clip-rule="evenodd" d="M7 1.16663C9.89952 1.16663 12.25 3.51713 12.25 6.41663C12.25 8.20968 11.2724 9.67699 10.2424 10.7301C9.67731 11.3078 9.07647 11.7817 8.56433 12.1399L8.31623 12.3093C8.2763 12.3359 8.23713 12.3617 8.1988 12.3866L7.97936 12.5264L7.78334 12.6461L7.54081 12.7872C7.20294 12.978 6.79706 12.978 6.45919 12.7872L6.21666 12.6461L5.91363 12.459C5.87703 12.4357 5.83953 12.4116 5.8012 12.3866L5.56179 12.227C5.02392 11.86 4.36979 11.356 3.75761 10.7301C2.72761 9.67699 1.75 8.20968 1.75 6.41663C1.75 3.51713 4.10051 1.16663 7 1.16663ZM7 2.33329C4.74484 2.33329 2.91667 4.16147 2.91667 6.41663C2.91667 7.77136 3.65868 8.96043 4.59166 9.91429C5.02067 10.3529 5.47607 10.7272 5.88754 11.0286L6.15457 11.2188C6.2409 11.2785 6.32429 11.3345 6.40397 11.3868L6.63109 11.5321L6.83131 11.6543L7 11.7527L7.26515 11.5961L7.4794 11.4623C7.59306 11.3896 7.71594 11.3083 7.84543 11.2188L8.11247 11.0286C8.52395 10.7272 8.97934 10.3529 9.40835 9.91429C10.3413 8.96043 11.0833 7.77136 11.0833 6.41663C11.0833 4.16147 9.25517 2.33329 7 2.33329ZM7 4.08329C8.28864 4.08329 9.33333 5.12796 9.33333 6.41663C9.33333 7.70527 8.28864 8.74996 7 8.74996C5.71133 8.74996 4.66667 7.70527 4.66667 6.41663C4.66667 5.12796 5.71133 4.08329 7 4.08329ZM7 5.24996C6.35565 5.24996 5.83333 5.77229 5.83333 6.41663C5.83333 7.06098 6.35565 7.58329 7 7.58329C7.64435 7.58329 8.16667 7.06098 8.16667 6.41663C8.16667 5.77229 7.64435 5.24996 7 5.24996Z" fill="#FEA735"/>
</svg>
