<svg width="128" height="39" viewBox="0 0 128 39" fill="none" xmlns="http://www.w3.org/2000/svg">
<g clip-path="url(#clip0_6212_15198)">
<path d="M123.259 38.0028H4.74074C2.08593 38.0028 0 35.9169 0 33.2621V4.81764C0 2.16283 2.08593 0.0769043 4.74074 0.0769043H123.259C125.914 0.0769043 128 2.16283 128 4.81764V33.2621C128 35.9169 125.914 38.0028 123.259 38.0028Z" fill="#131416"/>
<path d="M123.259 0.835423C125.44 0.835423 127.241 2.6369 127.241 4.81764V33.2621C127.241 35.4428 125.44 37.2443 123.259 37.2443H4.74074C2.56 37.2443 0.758519 35.4428 0.758519 33.2621V4.81764C0.758519 2.6369 2.56 0.835423 4.74074 0.835423H123.259ZM123.259 0.0769043H4.74074C2.08593 0.0769043 0 2.25764 0 4.81764V33.2621C0 35.9169 2.08593 38.0028 4.74074 38.0028H123.259C125.914 38.0028 128 35.9169 128 33.2621V4.81764C128 2.25764 125.914 0.0769043 123.259 0.0769043Z" fill="#383A41"/>
<path d="M44.9389 9.74815C44.9389 10.5067 44.7493 11.1704 44.2752 11.6444C43.7063 12.2133 43.0426 12.4978 42.1893 12.4978C41.3359 12.4978 40.6722 12.2133 40.1033 11.6444C39.5344 11.0756 39.25 10.4119 39.25 9.55852C39.25 8.70519 39.5344 8.04148 40.1033 7.4726C40.6722 6.90371 41.3359 6.61926 42.1893 6.61926C42.5685 6.61926 42.9478 6.71408 43.327 6.90371C43.7063 7.09334 43.9907 7.28297 44.1804 7.56741L43.7063 8.04148C43.327 7.56741 42.853 7.37778 42.1893 7.37778C41.6204 7.37778 41.0515 7.56741 40.6722 8.04148C40.1981 8.42074 40.0085 8.98963 40.0085 9.65334C40.0085 10.317 40.1981 10.8859 40.6722 11.2652C41.1463 11.6444 41.6204 11.9289 42.1893 11.9289C42.853 11.9289 43.327 11.7393 43.8011 11.2652C44.0856 10.9807 44.2752 10.6015 44.2752 10.1274H42.1893V9.36889H44.9389V9.74815ZM49.3004 7.37778H46.7404V9.17926H49.1107V9.84297H46.7404V11.6444H49.3004V12.403H45.9818V6.71408H49.3004V7.37778ZM52.4293 12.403H51.6707V7.37778H50.0589V6.71408H54.0411V7.37778H52.4293V12.403ZM56.7907 12.403V6.71408H57.5493V12.403H56.7907ZM60.773 12.403H60.0144V7.37778H58.4026V6.71408H62.29V7.37778H60.6781V12.403H60.773ZM69.7804 11.6444C69.2115 12.2133 68.5478 12.4978 67.6944 12.4978C66.8411 12.4978 66.1774 12.2133 65.6085 11.6444C65.0396 11.0756 64.7552 10.4119 64.7552 9.55852C64.7552 8.70519 65.0396 8.04148 65.6085 7.4726C66.1774 6.90371 66.8411 6.61926 67.6944 6.61926C68.5478 6.61926 69.2115 6.90371 69.7804 7.4726C70.3493 8.04148 70.6337 8.70519 70.6337 9.55852C70.6337 10.4119 70.3493 11.0756 69.7804 11.6444ZM66.1774 11.1704C66.5567 11.5496 67.1256 11.8341 67.6944 11.8341C68.2633 11.8341 68.8322 11.6444 69.2115 11.1704C69.5907 10.7911 69.8752 10.2222 69.8752 9.55852C69.8752 8.89482 69.6856 8.32593 69.2115 7.94667C68.8322 7.56741 68.2633 7.28297 67.6944 7.28297C67.1256 7.28297 66.5567 7.4726 66.1774 7.94667C65.7981 8.32593 65.5137 8.89482 65.5137 9.55852C65.5137 10.2222 65.7033 10.7911 66.1774 11.1704ZM71.6767 12.403V6.71408H72.53L75.2796 11.1704V6.71408H76.0381V12.403H75.2796L72.3404 7.75704V12.403H71.6767Z" fill="white" stroke="white" stroke-width="0.194211" stroke-miterlimit="10"/>
<path d="M64.5687 20.7467C62.2932 20.7467 60.4917 22.4534 60.4917 24.8237C60.4917 27.0993 62.2932 28.9008 64.5687 28.9008C66.8443 28.9008 68.6458 27.1941 68.6458 24.8237C68.6458 22.3586 66.8443 20.7467 64.5687 20.7467ZM64.5687 27.1941C63.3362 27.1941 62.2932 26.1511 62.2932 24.7289C62.2932 23.3067 63.3362 22.2637 64.5687 22.2637C65.8013 22.2637 66.8443 23.2119 66.8443 24.7289C66.8443 26.1511 65.8013 27.1941 64.5687 27.1941ZM55.751 20.7467C53.4754 20.7467 51.6739 22.4534 51.6739 24.8237C51.6739 27.0993 53.4754 28.9008 55.751 28.9008C58.0265 28.9008 59.828 27.1941 59.828 24.8237C59.828 22.3586 58.0265 20.7467 55.751 20.7467ZM55.751 27.1941C54.5184 27.1941 53.4754 26.1511 53.4754 24.7289C53.4754 23.3067 54.5184 22.2637 55.751 22.2637C56.9836 22.2637 58.0265 23.2119 58.0265 24.7289C58.0265 26.1511 56.9836 27.1941 55.751 27.1941ZM45.2265 21.9793V23.686H49.3036C49.2088 24.6341 48.8295 25.3926 48.3554 25.8667C47.7865 26.4356 46.8384 27.0993 45.2265 27.0993C42.6665 27.0993 40.7702 25.1082 40.7702 22.5482C40.7702 19.9882 42.7613 17.9971 45.2265 17.9971C46.5539 17.9971 47.5969 18.566 48.3554 19.2297L49.588 17.9971C48.545 17.0489 47.2176 16.2904 45.3213 16.2904C41.908 16.2904 38.9688 19.1348 38.9688 22.5482C38.9688 25.9615 41.908 28.806 45.3213 28.806C47.2176 28.806 48.545 28.2371 49.6828 27.0045C50.8206 25.8667 51.1999 24.2548 51.1999 23.0223C51.1999 22.643 51.1999 22.2637 51.105 21.9793H45.2265ZM88.2724 23.3067C87.8932 22.3586 86.945 20.7467 84.8591 20.7467C82.7732 20.7467 81.0665 22.3586 81.0665 24.8237C81.0665 27.0993 82.7732 28.9008 85.0487 28.9008C86.8502 28.9008 87.988 27.763 88.3673 27.0993L87.0399 26.1511C86.5658 26.8148 85.9969 27.2889 85.0487 27.2889C84.1006 27.2889 83.5317 26.9097 83.0576 26.0563L88.4621 23.7808L88.2724 23.3067ZM82.7732 24.6341C82.7732 23.1171 84.0058 22.2637 84.8591 22.2637C85.5228 22.2637 86.1865 22.643 86.3762 23.1171L82.7732 24.6341ZM78.3169 28.5215H80.1184V16.6697H78.3169V28.5215ZM75.4725 21.6C74.9984 21.126 74.2399 20.6519 73.2917 20.6519C71.3006 20.6519 69.4043 22.4534 69.4043 24.7289C69.4043 27.0045 71.2058 28.7111 73.2917 28.7111C74.2399 28.7111 74.9984 28.2371 75.3776 27.763H75.4725V28.3319C75.4725 29.8489 74.6191 30.7023 73.2917 30.7023C72.2488 30.7023 71.4902 29.9437 71.3006 29.28L69.7836 29.9437C70.2576 30.9867 71.3954 32.3141 73.3865 32.3141C75.4725 32.3141 77.1791 31.0815 77.1791 28.1423V20.9363H75.4725V21.6ZM73.3865 27.1941C72.1539 27.1941 71.111 26.1511 71.111 24.7289C71.111 23.3067 72.1539 22.2637 73.3865 22.2637C74.6191 22.2637 75.5673 23.3067 75.5673 24.7289C75.5673 26.1511 74.6191 27.1941 73.3865 27.1941ZM96.5213 16.6697H92.2547V28.5215H94.0562V24.0652H96.5213C98.5125 24.0652 100.409 22.643 100.409 20.3674C100.409 18.0919 98.5125 16.6697 96.5213 16.6697ZM96.6162 22.3586H94.0562V18.2815H96.6162C97.9436 18.2815 98.7021 19.4193 98.7021 20.2726C98.6073 21.3156 97.8487 22.3586 96.6162 22.3586ZM107.52 20.6519C106.192 20.6519 104.865 21.2208 104.391 22.4534L106.003 23.1171C106.382 22.4534 106.951 22.2637 107.615 22.2637C108.563 22.2637 109.416 22.8326 109.511 23.7808V23.8756C109.227 23.686 108.468 23.4015 107.709 23.4015C106.003 23.4015 104.296 24.3497 104.296 26.0563C104.296 27.6682 105.718 28.7111 107.235 28.7111C108.468 28.7111 109.037 28.1423 109.511 27.5734H109.606V28.5215H111.312V23.9704C111.123 21.8845 109.511 20.6519 107.52 20.6519ZM107.33 27.1941C106.761 27.1941 105.908 26.9097 105.908 26.1511C105.908 25.203 106.951 24.9186 107.804 24.9186C108.563 24.9186 108.942 25.1082 109.416 25.2978C109.227 26.4356 108.278 27.1941 107.33 27.1941ZM117.286 20.9363L115.295 26.0563H115.2L113.114 20.9363H111.218L114.347 28.1423L112.545 32.1245H114.347L119.182 20.9363H117.286ZM101.357 28.5215H103.158V16.6697H101.357V28.5215Z" fill="white"/>
<path d="M9.86363 7.18811C9.57919 7.47255 9.48438 7.94663 9.48438 8.51552V29.4696C9.48438 30.0385 9.674 30.5126 9.95845 30.797L10.0533 30.8918L21.8103 19.1348V18.9451L9.86363 7.18811Z" fill="url(#paint0_linear_6212_15198)"/>
<path d="M25.6062 23.117L21.7188 19.2296V18.9451L25.6062 15.0577L25.701 15.1526L30.3469 17.8074C31.6743 18.5659 31.6743 19.7985 30.3469 20.557L25.6062 23.117Z" fill="url(#paint1_linear_6212_15198)"/>
<path d="M25.6934 23.0223L21.7112 19.04L9.85938 30.8919C10.3334 31.366 10.9972 31.366 11.8505 30.9867L25.6934 23.0223Z" fill="url(#paint2_linear_6212_15198)"/>
<path d="M25.6934 15.0578L11.8505 7.18815C10.9972 6.71407 10.3334 6.80889 9.85938 7.28296L21.7112 19.04L25.6934 15.0578Z" fill="url(#paint3_linear_6212_15198)"/>
<path opacity="0.2" d="M25.5986 22.9274L11.8505 30.7022C11.092 31.1763 10.4283 31.0814 9.95419 30.7022L9.85938 30.797L9.95419 30.8918C10.4283 31.2711 11.092 31.3659 11.8505 30.8918L25.5986 22.9274Z" fill="#131416"/>
<path opacity="0.12" d="M9.86363 30.7023C9.57919 30.4178 9.48438 29.9437 9.48438 29.3749V29.4697C9.48438 30.0386 9.674 30.5126 9.95845 30.7971V30.7023H9.86363ZM30.3436 20.2726L25.6029 22.9274L25.6977 23.0223L30.3436 20.3674C31.0073 19.9882 31.2918 19.5141 31.2918 19.04C31.2918 19.5141 30.9125 19.8934 30.3436 20.2726Z" fill="#131416"/>
<path opacity="0.25" d="M11.8547 7.28297L30.3436 17.8074C30.9125 18.1867 31.2918 18.5659 31.2918 19.04C31.2918 18.5659 31.0073 18.0919 30.3436 17.7126L11.8547 7.18815C10.5273 6.42963 9.48438 6.99852 9.48438 8.51556V8.61038C9.48438 7.18815 10.5273 6.52445 11.8547 7.28297Z" fill="white"/>
</g>
<defs>
<linearGradient id="paint0_linear_6212_15198" x1="20.6725" y1="8.33537" x2="4.75975" y2="24.2472" gradientUnits="userSpaceOnUse">
<stop stop-color="#00A0FF"/>
<stop offset="0.007" stop-color="#00A1FF"/>
<stop offset="0.26" stop-color="#00BEFF"/>
<stop offset="0.512" stop-color="#00D2FF"/>
<stop offset="0.76" stop-color="#00DFFF"/>
<stop offset="1" stop-color="#00E3FF"/>
</linearGradient>
<linearGradient id="paint1_linear_6212_15198" x1="32.0858" y1="19.0409" x2="9.14346" y2="19.0409" gradientUnits="userSpaceOnUse">
<stop stop-color="#FFE000"/>
<stop offset="0.409" stop-color="#FFBD00"/>
<stop offset="0.775" stop-color="#FFA500"/>
<stop offset="1" stop-color="#FF9C00"/>
</linearGradient>
<linearGradient id="paint2_linear_6212_15198" x1="23.5383" y1="21.217" x2="1.96036" y2="42.7949" gradientUnits="userSpaceOnUse">
<stop stop-color="#FF3A44"/>
<stop offset="1" stop-color="#C31162"/>
</linearGradient>
<linearGradient id="paint3_linear_6212_15198" x1="6.91727" y1="0.243909" x2="16.5533" y2="9.87994" gradientUnits="userSpaceOnUse">
<stop stop-color="#32A071"/>
<stop offset="0.069" stop-color="#2DA771"/>
<stop offset="0.476" stop-color="#15CF74"/>
<stop offset="0.801" stop-color="#06E775"/>
<stop offset="1" stop-color="#00F076"/>
</linearGradient>
<clipPath id="clip0_6212_15198">
<rect width="128" height="38.08" fill="white"/>
</clipPath>
</defs>
</svg>
