<svg width="14" height="14" viewBox="0 0 14 14" fill="none" xmlns="http://www.w3.org/2000/svg">
<path d="M0 14L0.984083 10.4049C0.376833 9.35258 0.05775 8.15967 0.0583333 6.93642C0.0600833 3.11208 3.17217 0 6.99592 0C8.8515 0.000583333 10.5933 0.723333 11.9035 2.03467C13.2131 3.346 13.9341 5.089 13.9335 6.94283C13.9318 10.7677 10.8197 13.8798 6.99592 13.8798C5.83508 13.8792 4.69117 13.5882 3.67792 13.0352L0 14ZM3.84825 11.7793C4.82592 12.3597 5.75925 12.7073 6.99358 12.7079C10.1716 12.7079 12.7604 10.1214 12.7622 6.94167C12.7633 3.7555 10.1868 1.1725 6.99825 1.17133C3.81792 1.17133 1.23083 3.75783 1.22967 6.937C1.22908 8.23492 1.60942 9.20675 2.24817 10.2235L1.66542 12.3515L3.84825 11.7793ZM10.4907 8.59192C10.4475 8.51958 10.332 8.47642 10.1582 8.3895C9.98492 8.30258 9.13267 7.88317 8.97342 7.82542C8.81475 7.76767 8.69925 7.7385 8.58317 7.91233C8.46767 8.08558 8.13517 8.47642 8.03425 8.59192C7.93333 8.70742 7.83183 8.722 7.65858 8.63508C7.48533 8.54817 6.9265 8.36558 6.26442 7.77467C5.74933 7.315 5.40108 6.74742 5.30017 6.57358C5.19925 6.40033 5.28967 6.30642 5.376 6.22008C5.45417 6.1425 5.54925 6.01767 5.63617 5.91617C5.72425 5.81583 5.75283 5.7435 5.81117 5.62742C5.86892 5.51192 5.84033 5.41042 5.79658 5.3235C5.75283 5.23717 5.40633 4.38375 5.26225 4.03667C5.12108 3.69892 4.97817 3.74442 4.872 3.73917L4.5395 3.73333C4.424 3.73333 4.23617 3.7765 4.0775 3.95033C3.91883 4.12417 3.47083 4.543 3.47083 5.39642C3.47083 6.24983 4.09208 7.07408 4.17842 7.18958C4.26533 7.30508 5.4005 9.05625 7.13942 9.807C7.553 9.9855 7.87617 10.0922 8.12758 10.1722C8.54292 10.304 8.92092 10.2853 9.21958 10.241C9.55267 10.1914 10.2451 9.82158 10.3898 9.41675C10.5344 9.01133 10.5344 8.66425 10.4907 8.59192Z" fill="#131416"/>
</svg>
