<svg width="24" height="24" viewBox="0 0 24 24" fill="none" xmlns="http://www.w3.org/2000/svg">
<path fill-rule="evenodd" clip-rule="evenodd" d="M9 2C10.1947 2 11.2671 2.52376 12 3.35418C12.7329 2.52376 13.8053 2 15 2H15.5C16.3284 2 17 2.67157 17 3.5V4C17 4.72857 16.8052 5.41165 16.4649 6H19C20.1046 6 21 6.89543 21 8V11C21 11.7403 20.5978 12.3866 20 12.7324V18C20 19.6569 18.6569 21 17 21H7C5.34315 21 4 19.6569 4 18V12.7324C3.4022 12.3866 3 11.7403 3 11V8C3 6.89543 3.89543 6 5 6H7.53513C7.19479 5.41165 7 4.72857 7 4V3.5C7 2.67157 7.67157 2 8.5 2H9ZM18 13H13V19H17L17.1166 18.9933C17.5757 18.94 17.94 18.5757 17.9933 18.1166L18 18V13ZM11 13H6V18C6 18.5128 6.38604 18.9355 6.88338 18.9933L7 19H11V13ZM19 8H13V11H19V8ZM11 8H5V11H11V8ZM9 4C9 5.10457 9.89543 6 11 6C11 4.89543 10.1046 4 9 4ZM15 4C13.8954 4 13 4.89543 13 6C14.1046 6 15 5.10457 15 4Z" fill="#09244B"/>
</svg>
