<svg width="24" height="24" viewBox="0 0 24 24" fill="none" xmlns="http://www.w3.org/2000/svg">
<path fill-rule="evenodd" clip-rule="evenodd" d="M17.9609 7.05823C17.7523 5.88823 16.7298 5 15.4998 5C15.1872 5 14.888 5.05738 14.6121 5.16218C14.1688 4.46363 13.3885 4 12.4998 4C11.6112 4 10.8309 4.46363 10.3875 5.16218C10.1117 5.05738 9.81241 5 9.49979 5C8.11908 5 6.99979 6.11929 6.99979 7.5V8.46161C6.71448 8.22518 6.42665 8.02868 6.13037 7.87812C5.10972 7.35949 4.11832 7.43909 3.076 7.86637C2.23554 8.2109 1.96851 9.17351 2.32897 9.89443L5.17061 15.5777C6.52575 18.288 9.29585 20 12.3261 20H12.9998C17.4181 20 20.9998 16.4183 20.9998 12C20.9998 11.1667 20.9998 10.3333 20.9998 9.5C20.9998 8.11929 19.8805 7 18.4998 7C18.3148 7 18.1345 7.0201 17.9609 7.05823ZM9.99976 7.5C9.99976 7.22386 9.77593 7 9.49979 7C9.22365 7 8.99979 7.22386 8.99979 7.5V11C8.99979 11.4247 8.73155 11.8031 8.3308 11.9436C7.93005 12.0842 7.48422 11.9563 7.21892 11.6247C6.29432 10.4689 5.70307 9.90439 5.22435 9.66113C4.97678 9.53533 4.73115 9.48014 4.38966 9.54368L6.95947 14.6833C7.97582 16.716 10.0534 18 12.3261 18H12.9998C16.3135 18 18.9998 15.3137 18.9998 12C18.9998 11.1667 18.9998 10.3333 18.9998 9.5C18.9998 9.22386 18.776 9 18.4998 9C18.2237 9 17.9998 9.22386 17.9998 9.5V10C17.9998 10.5523 17.5521 11 16.9998 11C16.4475 11 15.9998 10.5523 15.9998 10C15.9998 9.16667 15.9998 8.33333 15.9998 7.5C15.9998 7.22386 15.776 7 15.4998 7C15.2237 7 14.9998 7.22386 14.9998 7.5V10C14.9998 10.5523 14.5521 11 13.9998 11C13.4475 11 12.9998 10.5523 12.9998 10V6.5C12.9998 6.22386 12.776 6 12.4998 6C12.2237 6 11.9998 6.22386 11.9998 6.5V10C11.9998 10.5523 11.5521 11 10.9998 11C10.4475 11 9.99976 10.5523 9.99976 10V7.5Z" fill="#09244B"/>
</svg>
