<svg width="24" height="24" viewBox="0 0 24 24" fill="none" xmlns="http://www.w3.org/2000/svg">
<path d="M20 6C21.1046 6 22 6.89543 22 8V19.3333C22 20.4379 21.1046 21.3333 20 21.3333H7C5.89543 21.3333 5 20.4379 5 19.3333V8C5 6.89543 5.89543 6 7 6H20ZM11.7322 13.9442L7.13598 18.5404L7.06992 18.6009L7 18.6544V19.3333H20V18.6545L19.93 18.601L19.8639 18.5405L17.6247 16.3013L17.2712 16.6548L17.3259 16.7096C17.7164 17.1001 17.7164 17.7333 17.3259 18.1238C16.9654 18.4843 16.3982 18.512 16.0059 18.207L15.9117 18.1238L11.7322 13.9442ZM17 3C18.0544 3 18.9182 3.81588 18.9945 4.85074L19 5H5C4.48717 5 4.06449 5.38604 4.00673 5.88338L4 6V18C2.94564 18 2.08183 17.1841 2.00549 16.1493L2 16V6C2 4.40232 3.24892 3.09634 4.82373 3.00509L5 3H17ZM20 8H7V15.848L10.8483 11.9997C11.3364 11.5115 12.1279 11.5115 12.6161 11.9997L15.857 15.2406L16.7409 14.3567C17.229 13.8686 18.0205 13.8686 18.5086 14.3567L20 15.8481V8ZM16.5 9.5C17.3284 9.5 18 10.1716 18 11C18 11.8284 17.3284 12.5 16.5 12.5C15.6716 12.5 15 11.8284 15 11C15 10.1716 15.6716 9.5 16.5 9.5Z" fill="#09244B"/>
</svg>
