<svg width="24" height="24" viewBox="0 0 24 24" fill="none" xmlns="http://www.w3.org/2000/svg">
<path d="M6.72009 16.6398C7.25029 16.4853 7.80543 16.7897 7.96003 17.32C8.11462 17.8502 7.81012 18.4053 7.27991 18.5599C6.77914 18.7059 6.41926 18.8607 6.18866 18.9996C6.42735 19.1433 6.80251 19.303 7.32497 19.4523C8.47958 19.7822 10.1328 19.9996 12 19.9996C13.8672 19.9996 15.5204 19.7822 16.675 19.4523C17.1975 19.303 17.5726 19.1433 17.8113 18.9996C17.5807 18.8607 17.2209 18.7059 16.7201 18.5599C16.1899 18.4053 15.8854 17.8502 16.04 17.32C16.1946 16.7897 16.7497 16.4853 17.2799 16.6398C17.948 16.8346 18.5608 17.0847 19.0293 17.4058C19.4655 17.7048 20 18.2259 20 18.9996C20 19.7832 19.4522 20.3078 19.0097 20.6067C18.5322 20.9292 17.9071 21.1803 17.2245 21.3753C15.8456 21.7693 13.9988 21.9996 12 21.9996C10.0012 21.9996 8.15442 21.7693 6.77553 21.3753C6.09289 21.1803 5.46776 20.9292 4.99033 20.6067C4.54781 20.3078 4 19.7832 4 18.9996C4 18.2259 4.53454 17.7048 4.97068 17.4058C5.43918 17.0847 6.05202 16.8346 6.72009 16.6398ZM12 2C16.1421 2 19.5 5.3579 19.5 9.5C19.5 12.0679 18.1005 14.1564 16.6502 15.6391C16.0353 16.2678 15.3907 16.809 14.797 17.2551C14.2033 17.7012 12.8455 18.5365 12.8455 18.5365C12.3176 18.8347 11.6824 18.8347 11.1545 18.5365C10.6266 18.2383 9.79666 17.7012 9.20296 17.2551C8.60926 16.809 7.96472 16.2678 7.34978 15.6391C5.89953 14.1564 4.5 12.0679 4.5 9.5C4.5 5.3579 7.85786 2 12 2ZM12 4C8.96243 4 6.5 6.4624 6.5 9.5C6.5 11.3165 7.49565 12.928 8.77956 14.2406C9.74554 15.2282 10.8105 15.9795 11.5475 16.4423C11.8203 16.608 11.9711 16.6992 12 16.716L12.4525 16.4423C13.1895 15.9795 14.2544 15.2282 15.2204 14.2406C16.5044 12.928 17.5 11.3165 17.5 9.5C17.5 6.4624 15.0376 4 12 4ZM12 6.5C13.6569 6.5 15 7.8431 15 9.5C15 11.1569 13.6569 12.5 12 12.5C10.3431 12.5 9 11.1569 9 9.5C9 7.8431 10.3431 6.5 12 6.5ZM12 8.5C11.4477 8.5 11 8.9477 11 9.5C11 10.0523 11.4477 10.5 12 10.5C12.5523 10.5 13 10.0523 13 9.5C13 8.9477 12.5523 8.5 12 8.5Z" fill="#09244B"/>
</svg>
