<svg width="24" height="24" viewBox="0 0 24 24" fill="none" xmlns="http://www.w3.org/2000/svg">
<path d="M10.2382 4.82677C11.0339 4.82677 11.797 5.14284 12.3596 5.70545L18.8448 12.1907C20.0164 13.3623 20.0164 15.2618 18.8448 16.4334L14.6022 20.676C13.4306 21.8476 11.5311 21.8476 10.3596 20.676L3.87428 14.1907C3.31168 13.6281 2.99561 12.8651 2.99561 12.0694V7.32677C2.99561 5.94605 4.11489 4.82677 5.49561 4.82677H10.2382ZM10.2382 6.82677H5.49561C5.21946 6.82677 4.99561 7.05062 4.99561 7.32677V12.0694C4.99561 12.3346 5.10096 12.589 5.2885 12.7765L11.7738 19.2618C12.1643 19.6523 12.7975 19.6523 13.188 19.2618L17.4306 15.0192C17.8212 14.6286 17.8212 13.9955 17.4306 13.6049L10.9454 7.11966C10.7578 6.93213 10.5035 6.82677 10.2382 6.82677ZM7.53099 9.36244C8.11677 8.77665 9.06652 8.77665 9.65231 9.36244C10.2381 9.94822 10.2381 10.898 9.65231 11.4838C9.06652 12.0695 8.11677 12.0695 7.53099 11.4838C6.9452 10.898 6.9452 9.94822 7.53099 9.36244ZM11.6524 1.99854C12.448 1.99854 13.2111 2.3146 13.7737 2.87721L20.9661 10.0696C21.3566 10.4601 21.3566 11.0933 20.9661 11.4838C20.5756 11.8743 19.9424 11.8743 19.5519 11.4838L12.3595 4.29143C12.172 4.10389 11.9176 3.99854 11.6524 3.99854H7.00011C6.44783 3.99854 6.00011 3.55082 6.00011 2.99854C6.00011 2.44625 6.44783 1.99854 7.00011 1.99854H11.6524Z" fill="#09244B"/>
</svg>
