<svg width="24" height="24" viewBox="0 0 24 24" fill="none" xmlns="http://www.w3.org/2000/svg">
<path d="M10.7009 3.14746C11.2532 2.19094 12.5978 2.14935 13.2189 3.0227L13.299 3.14746L21.933 18.1019C22.4881 19.0634 21.8423 20.2561 20.7653 20.3464L20.634 20.3519H3.36601C2.25572 20.3519 1.54577 19.1962 2.00607 18.2183L2.06697 18.1019L10.7009 3.14746ZM12 7.99976C11.6427 7.99976 11.3126 8.19035 11.134 8.49976L6.80385 15.9998C6.62521 16.3092 6.62521 16.6904 6.80385 16.9998C6.98248 17.3092 7.31261 17.4998 7.66987 17.4998H16.3301C16.6874 17.4998 17.0175 17.3092 17.1962 16.9998C17.3748 16.6904 17.3748 16.3092 17.1962 15.9998L12.866 8.49976C12.6874 8.19035 12.3573 7.99976 12 7.99976ZM12 10.9998L14.5981 15.4998H9.40192L12 10.9998Z" fill="#09244B"/>
</svg>
